<?xml version="1.0" encoding="UTF-8"?> <!-- Generator: Adobe Illustrator 14.0.0, SVG Export Plug-In . SVG Version: 6.00 Build 43363) --> <svg xmlns="http://www.w3.org/2000/svg" xmlns:xlink="http://www.w3.org/1999/xlink" version="1.1" id="Ebene_1" x="0px" y="0px" width="703px" height="494px" viewBox="0 0 703 494" xml:space="preserve"> <g id="Ebene_3"> <g> <path fill="#DAE2EA" d="M695.832,66.916V39.933c0-5.522,0.43-11.933-11.089-16l-42.818-14c-6.125,0-11.091,4.478-11.091,10 v411.333c0,0.756,0.102,1.49,0.277,2.198v0.641c0,2.762,1.616,6.292,3.611,7.887l52.776,46.188 c1.995,1.595,8.774,2.097,8.611-5.957C696.111,482.222,696.011,67.652,695.832,66.916z"></path> <path fill="#CCCCCC" d="M690.715,489.384L690.715,489.384c-1.281,0-2.605-0.396-3.372-1.009l-52.785-46.195 c-2.034-1.626-3.696-5.252-3.696-8.075v-0.641c-0.182-0.7-0.277-1.461-0.277-2.198V19.933c0-5.652,5.088-10.25,11.341-10.25 l42.896,14.012c11.293,3.988,11.276,10.19,11.262,15.663l-0.001,27.558c0.025,0.075,0.112,0.43,0.207,207.929 c0.086,188.764,0.094,205.769,0.025,207.374l0.046-0.001c0.051,2.492-0.543,4.388-1.764,5.634 C693.628,488.84,692.249,489.384,690.715,489.384L690.715,489.384z M641.846,10.171c-5.899,0.012-10.763,4.386-10.763,9.762 v411.333c0,0.697,0.091,1.417,0.27,2.138l0.008,0.701c0,2.69,1.578,6.142,3.518,7.691l52.785,46.195 c0.675,0.54,1.876,0.893,3.051,0.893l0,0c0.99,0,2.404-0.239,3.524-1.383c1.123-1.146,1.669-2.92,1.621-5.273 c0.009-4.015-0.105-413.091-0.276-415.284l-0.002-27.011l0.001-0.576c0.015-5.306,0.03-11.32-10.923-15.188L641.846,10.171 L641.846,10.171z"></path> </g> <g> <path fill="#DAE2EA" d="M617.613,9.933H25.614c-5.523,0-10,4.478-10,10v411.333c0,3.368,1.67,6.34,4.221,8.152v-42.109 c0-5.523,4.478-10,10-10h552.001c5.522,0,10,4.477,10,10v43.957h25.777c5.523,0,10-4.478,10-10V19.933 C627.613,14.409,623.137,9.933,617.613,9.933z"></path> <path fill="#CCCCCC" d="M617.613,441.516h-26.027v-44.207c0-5.376-4.374-9.75-9.75-9.75H29.835c-5.376,0-9.75,4.374-9.75,9.75 v42.594l-0.395-0.28c-2.708-1.925-4.326-5.049-4.326-8.356V19.933c0-5.652,4.598-10.25,10.25-10.25h591.999 c5.652,0,10.25,4.598,10.25,10.25v411.333C627.863,436.918,623.265,441.516,617.613,441.516L617.613,441.516z M592.086,441.016 h25.527c5.376,0,9.75-4.374,9.75-9.75V19.933c0-5.376-4.374-9.75-9.75-9.75H25.614c-5.376,0-9.75,4.374-9.75,9.75v411.333 c0,2.981,1.382,5.807,3.721,7.652v-41.609c0-5.652,4.598-10.25,10.25-10.25h552.001c5.651,0,10.25,4.598,10.25,10.25V441.016 L592.086,441.016z"></path> </g> <g> <path fill="#C5CDD3" d="M614.836,387.309H29.835c-5.522,0-10,4.477-10,10v42.109c1.634,1.158,3.624,1.848,5.779,1.848h599.222 v-43.957C624.836,391.784,620.358,387.309,614.836,387.309z"></path> <path fill="#CCCCCC" d="M625.086,441.516H25.614c-2.128,0-4.176-0.655-5.924-1.894l-0.105-0.075v-42.238 c0-5.652,4.598-10.25,10.25-10.25h585.001c5.651,0,10.25,4.598,10.25,10.25V441.516L625.086,441.516z M20.085,439.288 c1.639,1.131,3.548,1.728,5.529,1.728h598.972v-43.707c0-5.376-4.374-9.75-9.75-9.75H29.835c-5.376,0-9.75,4.374-9.75,9.75 V439.288L20.085,439.288z"></path> </g> <g> <path fill="#C5CDD3" d="M624.836,186.642c0,5.523-4.478,10-10,10H239.835c-5.522,0-10-4.477-10-10v-70.333c0-5.522,4.478-10,10-10 h375.001c5.522,0,10,4.478,10,10V186.642z"></path> <path fill="#CCCCCC" d="M614.836,196.892H239.835c-5.652,0-10.25-4.598-10.25-10.25v-70.333c0-5.652,4.598-10.25,10.25-10.25 h375.001c5.651,0,10.25,4.598,10.25,10.25v70.333C625.086,192.294,620.487,196.892,614.836,196.892L614.836,196.892z M239.835,106.559c-5.376,0-9.75,4.374-9.75,9.75v70.333c0,5.376,4.374,9.75,9.75,9.75h375.001c5.376,0,9.75-4.374,9.75-9.75 v-70.333c0-5.376-4.374-9.75-9.75-9.75H239.835L239.835,106.559z"></path> </g> <g> <path fill="#C5CDD3" d="M624.836,92.642c0,5.523-4.478,10-10,10h-305c-5.522,0-10-4.477-10-10V22.309c0-5.522,4.478-10,10-10h305 c5.522,0,10,4.478,10,10V92.642L624.836,92.642z"></path> <path fill="#CCCCCC" d="M614.836,102.892h-305c-5.652,0-10.25-4.598-10.25-10.25V22.309c0-5.652,4.598-10.25,10.25-10.25h305 c5.652,0,10.25,4.598,10.25,10.25v70.333C625.086,98.294,620.488,102.892,614.836,102.892L614.836,102.892z M309.836,12.559 c-5.376,0-9.75,4.374-9.75,9.75v70.333c0,5.376,4.374,9.75,9.75,9.75h305c5.376,0,9.75-4.374,9.75-9.75V22.309 c0-5.376-4.374-9.75-9.75-9.75H309.836L309.836,12.559z"></path> </g> <g> <path fill="#C5CDD3" d="M624.836,279.975c0,5.523-4.478,10-10,10H169.835c-5.522,0-10-4.477-10-10v-70.333c0-5.522,4.478-10,10-10 h445.001c5.522,0,10,4.478,10,10V279.975z"></path> <path fill="#CCCCCC" d="M614.836,290.225H169.835c-5.652,0-10.25-4.598-10.25-10.25v-70.333c0-5.652,4.598-10.25,10.25-10.25 h445.001c5.652,0,10.25,4.598,10.25,10.25v70.333C625.086,285.627,620.488,290.225,614.836,290.225L614.836,290.225z M169.835,199.892c-5.376,0-9.75,4.374-9.75,9.75v70.333c0,5.376,4.374,9.75,9.75,9.75h445.001c5.376,0,9.75-4.374,9.75-9.75 v-70.333c0-5.376-4.374-9.75-9.75-9.75H169.835L169.835,199.892z"></path> </g> <g> <path fill="#C5CDD3" d="M624.836,373.975c0,5.522-4.478,10-10,10H99.835c-5.522,0-10-4.478-10-10v-70.332c0-5.523,4.478-10,10-10 h515.001c5.522,0,10,4.477,10,10V373.975z"></path> <path fill="#CCCCCC" d="M614.836,384.225H99.835c-5.652,0-10.25-4.599-10.25-10.25v-70.332c0-5.651,4.598-10.25,10.25-10.25 h515.001c5.652,0,10.25,4.599,10.25,10.25v70.332C625.086,379.626,620.488,384.225,614.836,384.225L614.836,384.225z M99.835,293.893c-5.376,0-9.75,4.374-9.75,9.75v70.332c0,5.376,4.374,9.75,9.75,9.75h515.001c5.376,0,9.75-4.374,9.75-9.75 v-70.332c0-5.376-4.374-9.75-9.75-9.75H99.835L99.835,293.893z"></path> </g> <g> <path fill="#C5CDD3" d="M692.806,66.916V39.933c0-5.522,0.429-11.933-11.089-16l-42.819-14c-6.125,0-11.09,4.478-11.09,10v411.333 c0,0.756,0.101,1.49,0.277,2.198v0.641c0,2.762,1.615,6.292,3.61,7.887l52.777,46.188c1.995,1.595,8.773,2.097,8.611-5.957 C693.086,482.222,692.984,67.652,692.806,66.916z"></path> <path fill="#CCCCCC" d="M687.689,489.384C687.689,489.384,687.689,489.384,687.689,489.384c-1.282,0-2.605-0.396-3.372-1.009 l-52.786-46.195c-2.033-1.626-3.695-5.251-3.695-8.075v-0.641c-0.182-0.696-0.277-1.456-0.277-2.198V19.933 c0-5.652,5.087-10.25,11.34-10.25l42.897,14.012c11.293,3.988,11.276,10.191,11.262,15.664l-0.001,27.557 c0.025,0.075,0.111,0.43,0.206,207.929c0.086,188.554,0.095,205.736,0.022,207.374l0.05-0.001c0.05,2.492-0.544,4.388-1.765,5.634 C690.601,488.84,689.223,489.384,687.689,489.384L687.689,489.384z M638.82,10.171c-5.899,0.012-10.762,4.386-10.762,9.762 v411.333c0,0.701,0.091,1.42,0.27,2.138l0.008,0.701c0,2.691,1.577,6.142,3.517,7.691l52.786,46.195 c0.675,0.54,1.876,0.893,3.05,0.893c0.001,0,0.001,0,0.001,0c0.989,0,2.404-0.239,3.524-1.382 c1.123-1.146,1.669-2.921,1.621-5.274c0.009-4.009-0.101-413.006-0.276-415.284l-0.002-27.011l0.001-0.575 c0.014-5.307,0.03-11.321-10.923-15.189L638.82,10.171L638.82,10.171z"></path> </g> </g> <g id="Ebene_1_1_"> <g> <path fill="#FFFFFF" d="M637.836,198.642c0,5.523-4.478,10-10,10H285.835c-5.522,0-10-4.477-10-10v-70.333c0-5.522,4.478-10,10-10 h342.001c5.522,0,10,4.478,10,10V198.642z"></path> <path fill="#666666" d="M627.836,208.892H285.835c-5.652,0-10.25-4.598-10.25-10.25v-70.333c0-5.652,4.598-10.25,10.25-10.25 h342.001c5.652,0,10.25,4.598,10.25,10.25v70.333C638.086,204.294,633.488,208.892,627.836,208.892L627.836,208.892z M285.835,118.559c-5.376,0-9.75,4.374-9.75,9.75v70.333c0,5.376,4.374,9.75,9.75,9.75h342.001c5.376,0,9.75-4.374,9.75-9.75 v-70.333c0-5.376-4.374-9.75-9.75-9.75H285.835L285.835,118.559z"></path> </g> <g> <path fill="#FFFFFF" d="M637.836,104.642c0,5.523-4.478,10-10,10H355.835c-5.522,0-10-4.477-10-10V34.309c0-5.522,4.478-10,10-10 h272.001c5.522,0,10,4.478,10,10V104.642z"></path> <path fill="#666666" d="M627.836,114.892H355.835c-5.652,0-10.25-4.598-10.25-10.25V34.309c0-5.652,4.598-10.25,10.25-10.25 h272.001c5.652,0,10.25,4.598,10.25,10.25v70.333C638.086,110.294,633.488,114.892,627.836,114.892L627.836,114.892z M355.835,24.559c-5.376,0-9.75,4.374-9.75,9.75v70.333c0,5.376,4.374,9.75,9.75,9.75h272.001c5.376,0,9.75-4.374,9.75-9.75 V34.309c0-5.376-4.374-9.75-9.75-9.75H355.835L355.835,24.559z"></path> </g> <g> <path fill="#FFFFFF" d="M637.836,291.975c0,5.523-4.478,10-10,10H215.835c-5.522,0-10-4.476-10-10v-70.333c0-5.522,4.478-10,10-10 h412.001c5.522,0,10,4.478,10,10V291.975z"></path> <path fill="#666666" d="M627.836,302.225H215.835c-5.652,0-10.25-4.598-10.25-10.25v-70.333c0-5.652,4.598-10.25,10.25-10.25 h412.001c5.652,0,10.25,4.598,10.25,10.25v70.333C638.086,297.627,633.488,302.225,627.836,302.225L627.836,302.225z M215.835,211.892c-5.376,0-9.75,4.374-9.75,9.75v70.333c0,5.376,4.374,9.75,9.75,9.75h412.001c5.376,0,9.75-4.374,9.75-9.75 v-70.333c0-5.376-4.374-9.75-9.75-9.75H215.835L215.835,211.892z"></path> </g> <g> <path fill="#FFFFFF" d="M637.836,385.975c0,5.522-4.478,10-10,10H145.835c-5.522,0-10-4.478-10-10v-70.332c0-5.523,4.478-10,10-10 h482.001c5.522,0,10,4.477,10,10V385.975z"></path> <path fill="#666666" d="M627.836,396.225H145.835c-5.652,0-10.25-4.598-10.25-10.25v-70.332c0-5.652,4.598-10.25,10.25-10.25 h482.001c5.652,0,10.25,4.598,10.25,10.25v70.332C638.086,391.627,633.488,396.225,627.836,396.225L627.836,396.225z M145.835,305.893c-5.376,0-9.75,4.374-9.75,9.75v70.332c0,5.376,4.374,9.75,9.75,9.75h482.001c5.376,0,9.75-4.374,9.75-9.75 v-70.332c0-5.376-4.374-9.75-9.75-9.75H145.835L145.835,305.893z"></path> </g> <g> <path fill="#FFFFFF" d="M637.836,479.642c0,5.522-4.478,10-10,10H75.835c-5.522,0-10-4.478-10-10v-70.333c0-5.523,4.478-10,10-10 h552.001c5.522,0,10,4.477,10,10V479.642z"></path> <path fill="#666666" d="M627.836,489.892H75.835c-5.652,0-10.25-4.598-10.25-10.25v-70.333c0-5.651,4.598-10.25,10.25-10.25 h552.001c5.652,0,10.25,4.599,10.25,10.25v70.333C638.086,485.294,633.488,489.892,627.836,489.892L627.836,489.892z M75.835,399.559c-5.376,0-9.75,4.374-9.75,9.75v70.333c0,5.376,4.374,9.75,9.75,9.75h552.001c5.376,0,9.75-4.374,9.75-9.75 v-70.333c0-5.376-4.374-9.75-9.75-9.75H75.835L75.835,399.559z"></path> </g> <g> <polygon fill="#1F497D" points="369.889,358.663 376.578,370.996 369.889,383.332 386.564,383.332 393.237,370.996 386.564,358.663 "></polygon> <polygon fill="#1F497D" points="389.889,358.663 396.578,370.996 389.889,383.332 406.565,383.332 413.237,370.996 406.565,358.663 "></polygon> <polygon fill="#1F497D" points="409.888,358.663 416.577,370.996 409.888,383.332 426.565,383.332 433.237,370.996 426.565,358.663 "></polygon> </g> <g> <polygon fill="#1F497D" points="516.888,317.663 523.577,329.996 516.888,342.332 533.563,342.332 540.236,329.996 533.563,317.663 "></polygon> <polygon fill="#1F497D" points="536.888,317.663 543.577,329.996 536.888,342.332 553.564,342.332 560.236,329.996 553.564,317.663 "></polygon> <polygon fill="#1F497D" points="556.887,317.663 563.576,329.996 556.887,342.332 573.564,342.332 580.236,329.996 573.564,317.663 "></polygon> </g> <g> <path fill="#C4CBCE" d="M572.009,472.355c0,2.376-1.927,4.301-4.3,4.301h-40.067c-2.375,0-4.3-1.925-4.3-4.301v-20.065 c0-2.376,1.925-4.301,4.3-4.301h40.067c2.373,0,4.3,1.925,4.3,4.301V472.355z"></path> <path fill="#C4CBCE" d="M493.009,472.355c0,2.376-1.927,4.301-4.3,4.301h-40.067c-2.375,0-4.3-1.925-4.3-4.301v-20.065 c0-2.376,1.925-4.301,4.3-4.301h40.067c2.373,0,4.3,1.925,4.3,4.301V472.355z"></path> <path fill="#C4CBCE" d="M437.009,472.355c0,2.376-1.927,4.301-4.3,4.301h-40.067c-2.375,0-4.301-1.925-4.301-4.301v-20.065 c0-2.376,1.926-4.301,4.301-4.301h40.067c2.373,0,4.3,1.925,4.3,4.301V472.355z"></path> <path fill="#C4CBCE" d="M410.008,438.355c0,2.376-1.926,4.301-4.3,4.301h-40.066c-2.375,0-4.301-1.925-4.301-4.301v-20.065 c0-2.376,1.926-4.301,4.301-4.301h40.066c2.374,0,4.3,1.925,4.3,4.301V438.355z"></path> <path fill="#C4CBCE" d="M331.008,455.355c0,2.376-1.926,4.301-4.3,4.301h-40.066c-2.375,0-4.301-1.925-4.301-4.301v-20.065 c0-2.376,1.926-4.301,4.301-4.301h40.066c2.374,0,4.3,1.925,4.3,4.301V455.355z"></path> <path fill="#C4CBCE" d="M572.009,438.355c0,2.376-1.927,4.301-4.3,4.301h-40.067c-2.375,0-4.3-1.925-4.3-4.301v-20.065 c0-2.376,1.925-4.301,4.3-4.301h40.067c2.373,0,4.3,1.925,4.3,4.301V438.355z"></path> </g> <path fill="none" d="M547.285,67.415c0.701-0.291,1.379-0.438,2.018-0.438c1.271,0,2.09,0.554,2.551,1.016 c0.413,0.41,1.668,1.95,0.584,4.572l-7.121,17.19c-0.071,0.173-0.156,0.332-0.241,0.492c1.649,0.411,3.364,0.653,5.14,0.653 c11.728,0,21.268-9.54,21.268-21.264c0-11.728-9.54-21.268-21.268-21.268c-11.726,0-21.265,9.541-21.265,21.268 c0,1.772,0.242,3.486,0.652,5.133c0.158-0.083,0.319-0.164,0.489-0.233L547.285,67.415z"></path> <path fill="#4D4D4D" d="M550.214,44.826c-13.703,0-24.811,11.105-24.811,24.812c0,3.133,0.587,6.127,1.646,8.887 c0.013-0.19,0.038-0.382,0.075-0.571c0.271-1.354,1.165-2.487,2.478-3.182c-0.41-1.646-0.652-3.36-0.652-5.133 c0-11.728,9.539-21.268,21.265-21.268c11.728,0,21.268,9.541,21.268,21.268c0,11.725-9.54,21.264-21.268,21.264 c-1.774,0-3.489-0.242-5.14-0.653c-0.806,1.53-2.174,2.455-3.774,2.542c2.768,1.065,5.771,1.656,8.914,1.656 c13.701,0,24.813-11.107,24.813-24.81C575.025,55.932,563.915,44.826,550.214,44.826z"></path> <path fill="#4D4D4D" d="M550.214,57.229c-6.852,0-12.403,5.553-12.403,12.406c0,0.562,0.051,1.111,0.123,1.654l9.353-3.874 c0.701-0.291,1.38-0.438,2.018-0.438c1.271,0,2.09,0.554,2.551,1.016c0.413,0.41,1.668,1.95,0.584,4.572l-3.875,9.354 c0.542,0.071,1.09,0.123,1.651,0.123c6.852,0,12.404-5.555,12.404-12.406C562.618,62.781,557.064,57.229,550.214,57.229z"></path> <path fill="#FFFFFF" d="M527.05,78.524c-0.086,1.332,0.446,2.662,1.508,3.725l0.688,0.688l-3.842,3.839v7.671h7.671l3.842-3.84 l0.686,0.687c0.979,0.979,2.203,1.516,3.45,1.516c0.084,0,0.165-0.015,0.248-0.019C534.761,90.271,529.561,85.066,527.05,78.524z"></path> <path fill="#4D4D4D" d="M530.437,80.371l2.565,2.565l-7.313,7.311c-0.381,0.385-0.381,1.014,0.002,1.398l2.517,2.514 c0.189,0.19,0.444,0.288,0.695,0.288c0.255,0,0.509-0.096,0.699-0.287l7.311-7.313l2.565,2.57c0.498,0.494,1.049,0.736,1.572,0.736 c0.741,0,1.425-0.487,1.805-1.414l7.122-17.19c0.327-0.786,0.302-1.371-0.003-1.673c-0.154-0.156-0.383-0.24-0.674-0.24 c-0.278,0-0.617,0.076-1.002,0.236l-17.19,7.121C529.533,77.643,529.232,79.164,530.437,80.371"></path> <g> <path fill="#A7C77D" d="M572.009,472.355c0,2.376-1.927,4.301-4.3,4.301h-40.067c-2.375,0-4.3-1.925-4.3-4.301v-20.065 c0-2.376,1.925-4.301,4.3-4.301h40.067c2.373,0,4.3,1.925,4.3,4.301V472.355z"></path> <path fill="#A7C77D" d="M493.009,472.355c0,2.376-1.927,4.301-4.3,4.301h-40.067c-2.375,0-4.3-1.925-4.3-4.301v-20.065 c0-2.376,1.925-4.301,4.3-4.301h40.067c2.373,0,4.3,1.925,4.3,4.301V472.355z"></path> <path fill="#A7C77D" d="M437.009,472.355c0,2.376-1.927,4.301-4.3,4.301h-40.067c-2.375,0-4.301-1.925-4.301-4.301v-20.065 c0-2.376,1.926-4.301,4.301-4.301h40.067c2.373,0,4.3,1.925,4.3,4.301V472.355z"></path> <path fill="#A7C77D" d="M410.008,438.355c0,2.376-1.926,4.301-4.3,4.301h-40.066c-2.375,0-4.301-1.925-4.301-4.301v-20.065 c0-2.376,1.926-4.301,4.301-4.301h40.066c2.374,0,4.3,1.925,4.3,4.301V438.355z"></path> <path fill="#A7C77D" d="M331.008,455.355c0,2.376-1.926,4.301-4.3,4.301h-40.066c-2.375,0-4.301-1.925-4.301-4.301v-20.065 c0-2.376,1.926-4.301,4.301-4.301h40.066c2.374,0,4.3,1.925,4.3,4.301V455.355z"></path> <path fill="#A7C77D" d="M572.009,438.355c0,2.376-1.927,4.301-4.3,4.301h-40.067c-2.375,0-4.3-1.925-4.3-4.301v-20.065 c0-2.376,1.925-4.301,4.3-4.301h40.067c2.373,0,4.3,1.925,4.3,4.301V438.355z"></path> </g> <polygon fill="#666666" points="304.25,430 303.75,430 303.75,336.75 325,336.75 325,337.25 304.25,337.25 304.25,430 "></polygon> <polygon fill="#666666" points="521,463.25 506.75,463.25 506.75,384.75 561.75,384.75 561.75,347 562.25,347 562.25,385.25 507.25,385.25 507.25,462.75 521,462.75 521,463.25 "></polygon> <polygon fill="#666666" points="607.25,331.246 582.236,331.246 582.236,330.746 606.75,330.746 606.75,260.25 596.354,260.25 596.354,259.75 607.25,259.75 607.25,331.246 "></polygon> <polygon fill="#666666" points="518,330.25 441.75,330.25 441.75,258.75 453,258.75 453,259.25 442.25,259.25 442.25,329.75 518,329.75 518,330.25 "></polygon> <polygon fill="#666666" points="400.25,357 399.75,357 399.75,280.75 406,280.75 406,281.25 400.25,281.25 400.25,357 "></polygon> <polygon fill="#666666" points="370,372.25 357.75,372.25 357.75,230.75 364,230.75 364,231.25 358.25,231.25 358.25,371.75 370,371.75 370,372.25 "></polygon> <polygon fill="#666666" points="386.25,411 385.75,411 385.75,404.75 447.75,404.75 447.75,360.75 456,360.75 456,361.25 448.25,361.25 448.25,405.25 386.25,405.25 386.25,411 "></polygon> <polygon fill="#666666" points="310.25,428 309.75,428 309.75,370.75 350,370.75 350,371.25 310.25,371.25 310.25,428 "></polygon> <polygon fill="#666666" points="468.25,446 467.75,446 467.75,339.25 393,339.25 393,338.75 468.25,338.75 468.25,446 "></polygon> <g> <polygon fill="#1F497D" points="456.888,346.997 463.577,359.33 456.888,371.666 473.563,371.666 480.236,359.33 473.563,346.997 "></polygon> <polygon fill="#1F497D" points="476.888,346.997 483.577,359.33 476.888,371.666 493.564,371.666 500.236,359.33 493.564,346.997 "></polygon> <polygon fill="#1F497D" points="496.887,346.997 503.576,359.33 496.887,371.666 513.564,371.666 520.236,359.33 513.564,346.997 "></polygon> </g> <polygon fill="#666666" points="548.25,411 547.75,411 547.75,360.25 524,360.25 524,359.75 548.25,359.75 548.25,411 "></polygon> <path fill="none" d="M526,313"></path> <polygon fill="#666666" points="544.25,314 543.75,314 543.75,194 544.25,194 544.25,314 "></polygon> <polygon fill="#B80D29" points="408.337,272.911 544.008,272.911 547.021,280.066 544.008,287.223 408.337,287.223 411.375,280.066 "></polygon> <polygon fill="#B80D29" points="455.671,250.91 591.341,250.91 594.354,258.065 591.341,265.222 455.671,265.222 458.709,258.065 "></polygon> <polygon fill="#666666" points="359.25,226 358.75,226 358.75,198.75 537.75,198.75 537.75,194 538.25,194 538.25,199.25 359.25,199.25 359.25,226 "></polygon> <polygon fill="#666666" points="391.25,333 390.75,333 390.75,186.75 479,186.75 479,187.25 391.25,187.25 391.25,333 "></polygon> <g> <polygon fill="#1F497D" points="324.888,324.663 331.577,336.996 324.888,349.332 341.564,349.332 348.237,336.996 341.564,324.663 "></polygon> <polygon fill="#1F497D" points="344.888,324.663 351.577,336.996 344.888,349.332 361.564,349.332 368.236,336.996 361.564,324.663 "></polygon> <polygon fill="#1F497D" points="364.888,324.663 371.577,336.996 364.888,349.332 381.564,349.332 388.236,336.996 381.564,324.663 "></polygon> </g> <polygon fill="#B80D29" points="368.1,224.244 489.002,224.244 491.687,230.62 489.002,236.998 368.1,236.998 370.807,230.62 "></polygon> <polygon fill="#666666" points="506.828,232.25 496.423,232.25 496.423,231.75 506.328,231.75 506.328,181.483 506.828,181.483 506.828,232.25 "></polygon> <polygon fill="#666666" points="512.316,343 511.816,343 511.816,156.882 512.316,156.882 512.316,343 "></polygon> <g> <circle fill="#E59255" cx="510.157" cy="140.495" r="16.846"></circle> <circle fill="#E59255" cx="492.191" cy="184.599" r="8.974"></circle> <circle fill="#E59255" cx="506.801" cy="168.489" r="8.975"></circle> <circle fill="#E59255" cx="543.603" cy="169.419" r="22.829"></circle> </g> <polygon fill="#666666" points="536.25,134 535.75,134 535.75,104 536.25,104 536.25,134 "></polygon> </g> <g id="DE"> <g> <path d="M292.9,131.386c0,0.897-0.305,1.585-0.914,2.063c-0.609,0.478-1.473,0.717-2.59,0.717h-1.435V138h-0.647v-9.28h2.272 C291.796,128.72,292.9,129.609,292.9,131.386z M287.962,133.608h1.276c1.045,0,1.801-0.173,2.266-0.518s0.698-0.904,0.698-1.679 c0-0.715-0.22-1.245-0.66-1.59s-1.122-0.518-2.044-0.518h-1.536V133.608z"></path> <path d="M297.477,130.967c0.292,0,0.605,0.029,0.939,0.089l-0.121,0.603c-0.288-0.071-0.586-0.107-0.895-0.107 c-0.588,0-1.071,0.25-1.447,0.749s-0.565,1.13-0.565,1.892V138h-0.628v-6.9h0.533l0.063,1.244h0.044 c0.284-0.508,0.586-0.864,0.908-1.069S297.02,130.967,297.477,130.967z"></path> <path d="M305.526,134.541c0,1.125-0.273,2.004-0.819,2.637s-1.299,0.949-2.26,0.949c-0.605,0-1.138-0.146-1.6-0.438 c-0.461-0.293-0.814-0.711-1.06-1.258c-0.246-0.545-0.368-1.176-0.368-1.891c0-1.126,0.273-2.003,0.819-2.632 c0.546-0.628,1.295-0.942,2.247-0.942c0.948,0,1.692,0.318,2.231,0.955C305.256,132.559,305.526,133.432,305.526,134.541z M300.079,134.541c0,0.947,0.208,1.687,0.625,2.218c0.417,0.531,1.006,0.797,1.768,0.797s1.351-0.266,1.768-0.797 c0.417-0.531,0.625-1.271,0.625-2.218c0-0.953-0.21-1.691-0.632-2.216c-0.421-0.524-1.012-0.787-1.774-0.787 s-1.349,0.262-1.761,0.784C300.285,132.845,300.079,133.584,300.079,134.541z"></path> <path d="M306.516,141.123c-0.338,0-0.624-0.053-0.857-0.158v-0.547c0.292,0.085,0.565,0.127,0.819,0.127 c0.639,0,0.958-0.372,0.958-1.117V131.1h0.628v8.24c0,0.57-0.134,1.011-0.403,1.32 C307.393,140.969,307.011,141.123,306.516,141.123z M307.347,129.184c0-0.406,0.133-0.609,0.4-0.609 c0.131,0,0.234,0.053,0.308,0.158c0.074,0.105,0.111,0.256,0.111,0.451c0,0.189-0.037,0.34-0.111,0.45 c-0.074,0.11-0.176,0.165-0.308,0.165C307.481,129.799,307.347,129.594,307.347,129.184z"></path> <path d="M313.162,138.127c-1.003,0-1.785-0.309-2.345-0.927c-0.561-0.618-0.841-1.483-0.841-2.597c0-1.1,0.271-1.981,0.813-2.644 s1.271-0.993,2.19-0.993c0.813,0,1.454,0.283,1.923,0.851s0.705,1.337,0.705,2.311v0.508h-4.97 c0.008,0.948,0.229,1.672,0.664,2.171c0.434,0.499,1.055,0.749,1.863,0.749c0.394,0,0.74-0.027,1.038-0.083 c0.299-0.055,0.676-0.173,1.133-0.355v0.572c-0.389,0.169-0.749,0.284-1.079,0.346S313.56,138.127,313.162,138.127z M312.978,131.526c-0.665,0-1.198,0.219-1.6,0.657c-0.402,0.438-0.637,1.069-0.705,1.895h4.266c0-0.8-0.173-1.425-0.521-1.876 C314.072,131.751,313.592,131.526,312.978,131.526z"></path> <path d="M318.126,134.973l3.523-3.873h0.762l-2.717,2.945l2.952,3.955h-0.755l-2.622-3.484l-1.13,1.027V138h-0.628v-9.877h0.628 v4.951l-0.044,1.898H318.126z"></path> <path d="M325.622,137.569c0.398,0,0.745-0.034,1.041-0.102v0.508c-0.305,0.102-0.656,0.152-1.054,0.152 c-0.609,0-1.059-0.163-1.349-0.488c-0.29-0.326-0.435-0.838-0.435-1.537v-4.455h-1.022v-0.369l1.022-0.285l0.317-1.562h0.324 v1.669h2.025v0.547h-2.025v4.367c0,0.528,0.093,0.92,0.279,1.174S325.224,137.569,325.622,137.569z"></path> <path d="M331.107,138.127c-1.062,0-1.836-0.397-2.323-1.193h-0.044l0.019,0.533c0.017,0.313,0.025,0.656,0.025,1.028v2.628h-0.628 V131.1h0.533l0.121,0.984h0.038c0.474-0.745,1.231-1.117,2.272-1.117c0.931,0,1.641,0.306,2.13,0.917 c0.488,0.611,0.733,1.501,0.733,2.669c0,1.135-0.257,2.014-0.771,2.638C332.697,137.815,331.995,138.127,331.107,138.127z M331.094,137.569c0.707,0,1.254-0.263,1.641-0.787c0.388-0.524,0.581-1.259,0.581-2.203c0-2.026-0.732-3.04-2.196-3.04 c-0.804,0-1.395,0.221-1.771,0.663s-0.565,1.163-0.565,2.162v0.203c0,1.078,0.181,1.849,0.543,2.311 C329.688,137.338,330.277,137.569,331.094,137.569z"></path> <path d="M341.599,134.541c0,1.125-0.273,2.004-0.819,2.637s-1.299,0.949-2.26,0.949c-0.605,0-1.138-0.146-1.6-0.438 c-0.461-0.293-0.814-0.711-1.06-1.258c-0.246-0.545-0.368-1.176-0.368-1.891c0-1.126,0.273-2.003,0.819-2.632 c0.546-0.628,1.295-0.942,2.247-0.942c0.948,0,1.691,0.318,2.231,0.955C341.329,132.559,341.599,133.432,341.599,134.541z M336.153,134.541c0,0.947,0.208,1.687,0.625,2.218c0.417,0.531,1.006,0.797,1.768,0.797s1.351-0.266,1.768-0.797 c0.417-0.531,0.625-1.271,0.625-2.218c0-0.953-0.21-1.691-0.631-2.216c-0.421-0.524-1.013-0.787-1.774-0.787 s-1.349,0.262-1.762,0.784C336.36,132.845,336.153,133.584,336.153,134.541z"></path> <path d="M346.227,130.967c0.292,0,0.605,0.029,0.939,0.089l-0.121,0.603c-0.288-0.071-0.586-0.107-0.895-0.107 c-0.588,0-1.071,0.25-1.447,0.749s-0.565,1.13-0.565,1.892V138h-0.628v-6.9h0.533l0.063,1.244h0.044 c0.284-0.508,0.586-0.864,0.908-1.069S345.77,130.967,346.227,130.967z"></path> <path d="M350.391,137.569c0.398,0,0.745-0.034,1.041-0.102v0.508c-0.305,0.102-0.656,0.152-1.054,0.152 c-0.609,0-1.059-0.163-1.349-0.488c-0.29-0.326-0.435-0.838-0.435-1.537v-4.455h-1.022v-0.369l1.022-0.285l0.317-1.562h0.324 v1.669h2.025v0.547h-2.025v4.367c0,0.528,0.093,0.92,0.279,1.174S349.993,137.569,350.391,137.569z"></path> <path d="M355.488,131.647h-1.625V138h-0.629v-6.354h-1.282v-0.369l1.282-0.234v-0.533c0-0.847,0.156-1.468,0.467-1.863 s0.82-0.594,1.527-0.594c0.381,0,0.762,0.058,1.143,0.172l-0.146,0.546c-0.338-0.105-0.675-0.159-1.01-0.159 c-0.49,0-0.838,0.146-1.043,0.436c-0.206,0.29-0.309,0.761-0.309,1.412v0.641h1.625V131.647z"></path> <path d="M362.527,134.541c0,1.125-0.272,2.004-0.818,2.637s-1.299,0.949-2.26,0.949c-0.605,0-1.139-0.146-1.6-0.438 c-0.461-0.293-0.814-0.711-1.061-1.258c-0.245-0.545-0.367-1.176-0.367-1.891c0-1.126,0.272-2.003,0.818-2.632 c0.546-0.628,1.295-0.942,2.247-0.942c0.948,0,1.692,0.318,2.231,0.955S362.527,133.432,362.527,134.541z M357.082,134.541 c0,0.947,0.208,1.687,0.625,2.218c0.416,0.531,1.006,0.797,1.768,0.797s1.352-0.266,1.768-0.797 c0.417-0.531,0.625-1.271,0.625-2.218c0-0.953-0.21-1.691-0.631-2.216c-0.422-0.524-1.013-0.787-1.774-0.787 s-1.349,0.262-1.761,0.784C357.287,132.845,357.082,133.584,357.082,134.541z"></path> <path d="M365.066,138h-0.628v-9.877h0.628V138z"></path> <path d="M367.289,129.184c0-0.406,0.133-0.609,0.399-0.609c0.132,0,0.233,0.053,0.308,0.158s0.111,0.256,0.111,0.451 c0,0.189-0.037,0.34-0.111,0.45s-0.176,0.165-0.308,0.165C367.422,129.799,367.289,129.594,367.289,129.184z M368.006,138h-0.629 v-6.9h0.629V138z"></path> <path d="M376.023,134.541c0,1.125-0.273,2.004-0.819,2.637s-1.3,0.949-2.26,0.949c-0.604,0-1.138-0.146-1.6-0.438 c-0.462-0.293-0.814-0.711-1.06-1.258c-0.246-0.545-0.369-1.176-0.369-1.891c0-1.126,0.273-2.003,0.819-2.632 c0.546-0.628,1.295-0.942,2.247-0.942c0.947,0,1.691,0.318,2.23,0.955C375.754,132.559,376.023,133.432,376.023,134.541z M370.576,134.541c0,0.947,0.209,1.687,0.625,2.218c0.418,0.531,1.007,0.797,1.769,0.797s1.351-0.266,1.769-0.797 c0.416-0.531,0.625-1.271,0.625-2.218c0-0.953-0.211-1.691-0.633-2.216c-0.42-0.524-1.012-0.787-1.773-0.787 s-1.35,0.262-1.762,0.784S370.576,133.584,370.576,134.541z"></path> <path d="M377.362,134.75v-0.521h3.015v0.521H377.362z"></path> </g> <g> <path d="M291.396,153.6l-3.459-8.569h-0.051c0.034,0.524,0.051,1.063,0.051,1.612v6.957h-0.622v-9.28h1.003l3.288,8.163h0.038 l3.288-8.163h0.978v9.28h-0.654v-7.033c0-0.491,0.025-0.999,0.076-1.523h-0.051l-3.472,8.557H291.396z"></path> <path d="M302.561,153.6l-0.159-1.092h-0.051c-0.347,0.444-0.704,0.759-1.069,0.942c-0.366,0.185-0.799,0.276-1.298,0.276 c-0.677,0-1.204-0.174-1.581-0.521s-0.565-0.827-0.565-1.44c0-0.674,0.28-1.196,0.841-1.568c0.561-0.372,1.372-0.569,2.434-0.59 l1.314-0.039v-0.457c0-0.655-0.133-1.15-0.4-1.484c-0.267-0.335-0.696-0.502-1.289-0.502c-0.639,0-1.301,0.178-1.987,0.533 l-0.235-0.546c0.757-0.355,1.506-0.533,2.247-0.533c0.757,0,1.323,0.196,1.698,0.591c0.374,0.393,0.562,1.007,0.562,1.84v4.59 H302.561z M300.022,153.156c0.736,0,1.317-0.211,1.743-0.632c0.425-0.421,0.638-1.006,0.638-1.755v-0.679l-1.206,0.051 c-0.969,0.046-1.66,0.197-2.072,0.453c-0.413,0.256-0.619,0.655-0.619,1.197c0,0.432,0.132,0.767,0.396,1.006 C299.166,153.036,299.54,153.156,300.022,153.156z"></path> <path d="M310.071,153.6v-4.475c0-0.694-0.146-1.199-0.438-1.515s-0.745-0.473-1.358-0.473c-0.825,0-1.429,0.208-1.812,0.625 c-0.383,0.417-0.575,1.093-0.575,2.028v3.809h-0.628v-6.9h0.533l0.121,0.946h0.038c0.449-0.72,1.246-1.079,2.393-1.079 c1.566,0,2.349,0.84,2.349,2.52v4.514H310.071z"></path> <path d="M317.116,153.6l-0.159-1.092h-0.051c-0.347,0.444-0.704,0.759-1.07,0.942c-0.366,0.185-0.798,0.276-1.298,0.276 c-0.677,0-1.204-0.174-1.581-0.521s-0.565-0.827-0.565-1.44c0-0.674,0.28-1.196,0.841-1.568c0.561-0.372,1.373-0.569,2.435-0.59 l1.314-0.039v-0.457c0-0.655-0.133-1.15-0.4-1.484c-0.267-0.335-0.696-0.502-1.289-0.502c-0.639,0-1.301,0.178-1.987,0.533 l-0.235-0.546c0.757-0.355,1.506-0.533,2.247-0.533c0.757,0,1.324,0.196,1.698,0.591c0.375,0.393,0.562,1.007,0.562,1.84v4.59 H317.116z M314.577,153.156c0.736,0,1.317-0.211,1.742-0.632c0.426-0.421,0.638-1.006,0.638-1.755v-0.679l-1.206,0.051 c-0.969,0.046-1.66,0.197-2.073,0.453c-0.412,0.256-0.619,0.655-0.619,1.197c0,0.432,0.132,0.767,0.397,1.006 C313.721,153.036,314.095,153.156,314.577,153.156z"></path> <path d="M325.197,146.699v0.438l-1.428,0.089c0.381,0.474,0.571,0.994,0.571,1.562c0,0.664-0.221,1.203-0.663,1.615 c-0.442,0.413-1.036,0.619-1.781,0.619c-0.313,0-0.533-0.013-0.66-0.038c-0.25,0.131-0.44,0.285-0.571,0.463 s-0.197,0.366-0.197,0.565c0,0.22,0.083,0.381,0.251,0.482c0.167,0.102,0.447,0.152,0.841,0.152h1.206 c0.749,0,1.322,0.151,1.72,0.454s0.597,0.75,0.597,1.342c0,0.729-0.295,1.29-0.885,1.686c-0.591,0.396-1.432,0.594-2.523,0.594 c-0.868,0-1.539-0.167-2.016-0.502c-0.476-0.334-0.714-0.799-0.714-1.396c0-0.474,0.147-0.867,0.441-1.18 c0.294-0.313,0.693-0.527,1.196-0.642c-0.208-0.089-0.374-0.215-0.498-0.378c-0.125-0.163-0.188-0.35-0.188-0.562 c0-0.461,0.294-0.867,0.882-1.219c-0.402-0.165-0.715-0.424-0.939-0.777s-0.336-0.759-0.336-1.216c0-0.689,0.219-1.243,0.657-1.66 c0.438-0.417,1.029-0.625,1.774-0.625c0.453,0,0.804,0.045,1.054,0.133H325.197z M319.611,154.768 c0,0.948,0.705,1.422,2.114,1.422c1.811,0,2.717-0.578,2.717-1.732c0-0.415-0.142-0.716-0.425-0.902 c-0.284-0.186-0.743-0.279-1.377-0.279h-1.13C320.244,153.276,319.611,153.774,319.611,154.768z M320.138,148.852 c0,0.533,0.162,0.947,0.485,1.241c0.324,0.294,0.757,0.44,1.298,0.44c0.576,0,1.017-0.146,1.324-0.438 c0.307-0.292,0.46-0.715,0.46-1.27c0-0.588-0.158-1.029-0.473-1.323c-0.315-0.294-0.757-0.441-1.324-0.441 c-0.55,0-0.983,0.157-1.298,0.473C320.296,147.85,320.138,148.289,320.138,148.852z"></path> <path d="M329.399,153.727c-1.003,0-1.785-0.309-2.345-0.927c-0.561-0.618-0.841-1.483-0.841-2.597c0-1.1,0.271-1.981,0.813-2.644 s1.271-0.993,2.19-0.993c0.813,0,1.454,0.283,1.923,0.851s0.705,1.337,0.705,2.311v0.508h-4.97 c0.008,0.948,0.229,1.672,0.664,2.171c0.434,0.499,1.055,0.749,1.863,0.749c0.394,0,0.74-0.027,1.038-0.083 c0.299-0.055,0.676-0.173,1.133-0.355v0.572c-0.389,0.169-0.749,0.284-1.079,0.346S329.797,153.727,329.399,153.727z M329.215,147.125c-0.665,0-1.198,0.219-1.6,0.657c-0.402,0.438-0.637,1.069-0.705,1.895h4.266c0-0.8-0.173-1.425-0.521-1.876 C330.309,147.351,329.829,147.125,329.215,147.125z"></path> <path d="M342.367,153.6v-4.525c0-0.674-0.131-1.164-0.394-1.473c-0.262-0.31-0.665-0.464-1.206-0.464 c-0.707,0-1.229,0.194-1.568,0.584s-0.508,1.001-0.508,1.835v4.043h-0.641v-4.717c0-1.163-0.533-1.745-1.6-1.745 c-0.724,0-1.25,0.211-1.581,0.632s-0.495,1.095-0.495,2.021v3.809h-0.628v-6.9h0.521l0.133,0.946h0.038 c0.19-0.343,0.461-0.608,0.813-0.797s0.738-0.282,1.162-0.282c1.087,0,1.786,0.408,2.095,1.225h0.025 c0.224-0.393,0.526-0.695,0.904-0.907c0.379-0.212,0.81-0.317,1.292-0.317c0.753,0,1.318,0.201,1.695,0.604 c0.376,0.401,0.565,1.041,0.565,1.916v4.514H342.367z"></path> <path d="M348.01,153.727c-1.003,0-1.785-0.309-2.345-0.927c-0.561-0.618-0.841-1.483-0.841-2.597c0-1.1,0.271-1.981,0.813-2.644 s1.271-0.993,2.19-0.993c0.813,0,1.454,0.283,1.923,0.851s0.705,1.337,0.705,2.311v0.508h-4.97 c0.008,0.948,0.229,1.672,0.664,2.171c0.434,0.499,1.055,0.749,1.863,0.749c0.394,0,0.74-0.027,1.038-0.083 c0.299-0.055,0.676-0.173,1.133-0.355v0.572c-0.389,0.169-0.749,0.284-1.079,0.346S348.408,153.727,348.01,153.727z M347.826,147.125c-0.665,0-1.198,0.219-1.6,0.657c-0.402,0.438-0.637,1.069-0.705,1.895h4.266c0-0.8-0.173-1.425-0.521-1.876 C348.92,147.351,348.44,147.125,347.826,147.125z"></path> <path d="M357.17,153.6v-4.475c0-0.694-0.146-1.199-0.438-1.515s-0.744-0.473-1.358-0.473c-0.825,0-1.429,0.208-1.812,0.625 c-0.384,0.417-0.575,1.093-0.575,2.028v3.809h-0.628v-6.9h0.533l0.12,0.946h0.038c0.449-0.72,1.246-1.079,2.393-1.079 c1.566,0,2.35,0.84,2.35,2.52v4.514H357.17z"></path> <path d="M361.848,153.168c0.397,0,0.745-0.034,1.041-0.102v0.508c-0.305,0.102-0.655,0.152-1.054,0.152 c-0.609,0-1.059-0.163-1.35-0.488c-0.289-0.326-0.434-0.838-0.434-1.537v-4.455h-1.022v-0.369l1.022-0.285l0.316-1.562h0.324 v1.669h2.025v0.547h-2.025v4.367c0,0.528,0.094,0.92,0.279,1.174S361.451,153.168,361.848,153.168z"></path> </g> <g> <path d="M223.9,226.386c0,0.897-0.305,1.585-0.914,2.063c-0.609,0.478-1.473,0.717-2.59,0.717h-1.435V233h-0.647v-9.28h2.272 C222.796,223.72,223.9,224.609,223.9,226.386z M218.962,228.608h1.276c1.045,0,1.801-0.173,2.266-0.518s0.698-0.904,0.698-1.679 c0-0.715-0.22-1.245-0.66-1.59s-1.122-0.518-2.044-0.518h-1.536V228.608z"></path> <path d="M228.477,225.967c0.292,0,0.605,0.029,0.939,0.089l-0.121,0.603c-0.288-0.071-0.586-0.107-0.895-0.107 c-0.588,0-1.071,0.25-1.447,0.749s-0.565,1.13-0.565,1.892V233h-0.628v-6.9h0.533l0.063,1.244h0.044 c0.284-0.508,0.586-0.864,0.908-1.069S228.02,225.967,228.477,225.967z"></path> <path d="M236.526,229.541c0,1.125-0.273,2.004-0.819,2.637s-1.299,0.949-2.26,0.949c-0.605,0-1.138-0.146-1.6-0.438 c-0.461-0.293-0.814-0.711-1.06-1.258c-0.246-0.545-0.368-1.176-0.368-1.891c0-1.126,0.273-2.003,0.819-2.632 c0.546-0.628,1.295-0.942,2.247-0.942c0.948,0,1.692,0.318,2.231,0.955C236.256,227.559,236.526,228.432,236.526,229.541z M231.079,229.541c0,0.947,0.208,1.687,0.625,2.218c0.417,0.531,1.006,0.797,1.768,0.797s1.351-0.266,1.768-0.797 c0.417-0.531,0.625-1.271,0.625-2.218c0-0.953-0.21-1.691-0.632-2.216c-0.421-0.524-1.012-0.787-1.774-0.787 s-1.349,0.262-1.761,0.784C231.285,227.845,231.079,228.584,231.079,229.541z"></path> <path d="M243.819,226.1v0.438l-1.428,0.089c0.381,0.474,0.571,0.994,0.571,1.562c0,0.664-0.221,1.203-0.663,1.615 c-0.442,0.413-1.036,0.619-1.781,0.619c-0.313,0-0.533-0.013-0.66-0.038c-0.25,0.131-0.44,0.285-0.571,0.463 s-0.197,0.366-0.197,0.565c0,0.22,0.083,0.381,0.251,0.482c0.167,0.102,0.447,0.152,0.841,0.152h1.206 c0.749,0,1.322,0.151,1.72,0.454s0.597,0.75,0.597,1.342c0,0.729-0.295,1.29-0.885,1.686c-0.591,0.396-1.432,0.594-2.523,0.594 c-0.868,0-1.539-0.167-2.016-0.502c-0.476-0.334-0.714-0.799-0.714-1.396c0-0.474,0.147-0.867,0.441-1.18 c0.294-0.313,0.693-0.527,1.196-0.642c-0.208-0.089-0.374-0.215-0.498-0.378c-0.125-0.163-0.188-0.35-0.188-0.562 c0-0.461,0.294-0.867,0.882-1.219c-0.402-0.165-0.715-0.424-0.939-0.777s-0.336-0.759-0.336-1.216c0-0.689,0.219-1.243,0.657-1.66 c0.438-0.417,1.029-0.625,1.774-0.625c0.453,0,0.804,0.045,1.054,0.133H243.819z M238.233,234.168 c0,0.948,0.705,1.422,2.114,1.422c1.811,0,2.717-0.578,2.717-1.732c0-0.415-0.142-0.716-0.425-0.902 c-0.284-0.186-0.743-0.279-1.377-0.279h-1.13C238.866,232.676,238.233,233.174,238.233,234.168z M238.76,228.252 c0,0.533,0.162,0.947,0.485,1.241c0.324,0.294,0.757,0.44,1.298,0.44c0.576,0,1.017-0.146,1.324-0.438 c0.307-0.292,0.46-0.715,0.46-1.27c0-0.588-0.158-1.029-0.473-1.323c-0.315-0.294-0.757-0.441-1.324-0.441 c-0.55,0-0.983,0.157-1.298,0.473C238.918,227.25,238.76,227.69,238.76,228.252z"></path> <path d="M247.951,225.967c0.292,0,0.605,0.029,0.939,0.089l-0.121,0.603c-0.288-0.071-0.586-0.107-0.895-0.107 c-0.588,0-1.071,0.25-1.447,0.749s-0.565,1.13-0.565,1.892V233h-0.628v-6.9h0.533l0.063,1.244h0.044 c0.284-0.508,0.586-0.864,0.908-1.069S247.494,225.967,247.951,225.967z"></path> <path d="M254.483,233l-0.159-1.092h-0.051c-0.347,0.444-0.704,0.759-1.069,0.942c-0.366,0.185-0.799,0.276-1.298,0.276 c-0.677,0-1.204-0.174-1.581-0.521s-0.565-0.827-0.565-1.44c0-0.674,0.28-1.196,0.841-1.568c0.561-0.372,1.372-0.569,2.434-0.59 l1.314-0.039v-0.457c0-0.655-0.133-1.15-0.4-1.484c-0.267-0.335-0.696-0.502-1.289-0.502c-0.639,0-1.301,0.178-1.987,0.533 l-0.235-0.546c0.757-0.355,1.506-0.533,2.247-0.533c0.757,0,1.323,0.196,1.698,0.591c0.374,0.393,0.562,1.007,0.562,1.84V233 H254.483z M251.944,232.556c0.736,0,1.317-0.211,1.743-0.632c0.425-0.421,0.638-1.006,0.638-1.755v-0.679l-1.206,0.051 c-0.969,0.046-1.66,0.197-2.072,0.453c-0.413,0.256-0.619,0.655-0.619,1.197c0,0.432,0.132,0.767,0.396,1.006 C251.088,232.437,251.462,232.556,251.944,232.556z"></path> <path d="M265.801,233v-4.525c0-0.674-0.131-1.164-0.394-1.473c-0.262-0.31-0.665-0.464-1.206-0.464 c-0.707,0-1.229,0.194-1.568,0.584s-0.508,1.001-0.508,1.835V233h-0.641v-4.717c0-1.163-0.533-1.745-1.6-1.745 c-0.724,0-1.25,0.211-1.581,0.632s-0.495,1.095-0.495,2.021V233h-0.628v-6.9h0.521l0.133,0.946h0.038 c0.19-0.343,0.461-0.608,0.813-0.797s0.738-0.282,1.162-0.282c1.087,0,1.786,0.408,2.095,1.225h0.025 c0.224-0.393,0.526-0.695,0.904-0.907c0.379-0.212,0.81-0.317,1.292-0.317c0.753,0,1.318,0.201,1.695,0.604 c0.376,0.401,0.565,1.041,0.565,1.916V233H265.801z"></path> <path d="M277.278,233v-4.525c0-0.674-0.131-1.164-0.394-1.473c-0.262-0.31-0.665-0.464-1.206-0.464 c-0.707,0-1.229,0.194-1.568,0.584s-0.508,1.001-0.508,1.835V233h-0.641v-4.717c0-1.163-0.533-1.745-1.6-1.745 c-0.724,0-1.25,0.211-1.581,0.632s-0.495,1.095-0.495,2.021V233h-0.628v-6.9h0.521l0.133,0.946h0.038 c0.19-0.343,0.461-0.608,0.813-0.797s0.738-0.282,1.162-0.282c1.087,0,1.786,0.408,2.095,1.225h0.025 c0.224-0.393,0.526-0.695,0.904-0.907c0.379-0.212,0.81-0.317,1.292-0.317c0.753,0,1.318,0.201,1.695,0.604 c0.376,0.401,0.565,1.041,0.565,1.916V233H277.278z"></path> <path d="M279.563,229.75v-0.521h3.015v0.521H279.563z"></path> </g> <g> <path d="M222.396,248.6l-3.459-8.569h-0.051c0.034,0.524,0.051,1.063,0.051,1.612v6.957h-0.622v-9.28h1.003l3.288,8.163h0.038 l3.288-8.163h0.978v9.28h-0.654v-7.033c0-0.491,0.025-0.999,0.076-1.523h-0.051l-3.472,8.557H222.396z"></path> <path d="M233.561,248.6l-0.159-1.092h-0.051c-0.347,0.444-0.704,0.759-1.069,0.942c-0.366,0.185-0.799,0.276-1.298,0.276 c-0.677,0-1.204-0.174-1.581-0.521s-0.565-0.827-0.565-1.44c0-0.674,0.28-1.196,0.841-1.568c0.561-0.372,1.372-0.569,2.434-0.59 l1.314-0.039v-0.457c0-0.655-0.133-1.15-0.4-1.484c-0.267-0.335-0.696-0.502-1.289-0.502c-0.639,0-1.301,0.178-1.987,0.533 l-0.235-0.546c0.757-0.355,1.506-0.533,2.247-0.533c0.757,0,1.323,0.196,1.698,0.591c0.374,0.393,0.562,1.007,0.562,1.84v4.59 H233.561z M231.022,248.156c0.736,0,1.317-0.211,1.743-0.632c0.425-0.421,0.638-1.006,0.638-1.755v-0.679l-1.206,0.051 c-0.969,0.046-1.66,0.197-2.072,0.453c-0.413,0.256-0.619,0.655-0.619,1.197c0,0.432,0.132,0.767,0.396,1.006 C230.166,248.036,230.54,248.156,231.022,248.156z"></path> <path d="M241.071,248.6v-4.475c0-0.694-0.146-1.199-0.438-1.515s-0.745-0.473-1.358-0.473c-0.825,0-1.429,0.208-1.812,0.625 c-0.383,0.417-0.575,1.093-0.575,2.028v3.809h-0.628v-6.9h0.533l0.121,0.946h0.038c0.449-0.72,1.246-1.079,2.393-1.079 c1.566,0,2.349,0.84,2.349,2.52v4.514H241.071z"></path> <path d="M248.116,248.6l-0.159-1.092h-0.051c-0.347,0.444-0.704,0.759-1.07,0.942c-0.366,0.185-0.798,0.276-1.298,0.276 c-0.677,0-1.204-0.174-1.581-0.521s-0.565-0.827-0.565-1.44c0-0.674,0.28-1.196,0.841-1.568c0.561-0.372,1.373-0.569,2.435-0.59 l1.314-0.039v-0.457c0-0.655-0.133-1.15-0.4-1.484c-0.267-0.335-0.696-0.502-1.289-0.502c-0.639,0-1.301,0.178-1.987,0.533 l-0.235-0.546c0.757-0.355,1.506-0.533,2.247-0.533c0.757,0,1.324,0.196,1.698,0.591c0.375,0.393,0.562,1.007,0.562,1.84v4.59 H248.116z M245.577,248.156c0.736,0,1.317-0.211,1.742-0.632c0.426-0.421,0.638-1.006,0.638-1.755v-0.679l-1.206,0.051 c-0.969,0.046-1.66,0.197-2.073,0.453c-0.412,0.256-0.619,0.655-0.619,1.197c0,0.432,0.132,0.767,0.397,1.006 C244.721,248.036,245.095,248.156,245.577,248.156z"></path> <path d="M256.197,241.699v0.438l-1.428,0.089c0.381,0.474,0.571,0.994,0.571,1.562c0,0.664-0.221,1.203-0.663,1.615 c-0.442,0.413-1.036,0.619-1.781,0.619c-0.313,0-0.533-0.013-0.66-0.038c-0.25,0.131-0.44,0.285-0.571,0.463 s-0.197,0.366-0.197,0.565c0,0.22,0.083,0.381,0.251,0.482c0.167,0.102,0.447,0.152,0.841,0.152h1.206 c0.749,0,1.322,0.151,1.72,0.454s0.597,0.75,0.597,1.342c0,0.729-0.295,1.29-0.885,1.686c-0.591,0.396-1.432,0.594-2.523,0.594 c-0.868,0-1.539-0.167-2.016-0.502c-0.476-0.334-0.714-0.799-0.714-1.396c0-0.474,0.147-0.867,0.441-1.18 c0.294-0.313,0.693-0.527,1.196-0.642c-0.208-0.089-0.374-0.215-0.498-0.378c-0.125-0.163-0.188-0.35-0.188-0.562 c0-0.461,0.294-0.867,0.882-1.219c-0.402-0.165-0.715-0.424-0.939-0.777s-0.336-0.759-0.336-1.216c0-0.689,0.219-1.243,0.657-1.66 c0.438-0.417,1.029-0.625,1.774-0.625c0.453,0,0.804,0.045,1.054,0.133H256.197z M250.611,249.768 c0,0.948,0.705,1.422,2.114,1.422c1.811,0,2.717-0.578,2.717-1.732c0-0.415-0.142-0.716-0.425-0.902 c-0.284-0.186-0.743-0.279-1.377-0.279h-1.13C251.244,248.276,250.611,248.774,250.611,249.768z M251.138,243.852 c0,0.533,0.162,0.947,0.485,1.241c0.324,0.294,0.757,0.44,1.298,0.44c0.576,0,1.017-0.146,1.324-0.438 c0.307-0.292,0.46-0.715,0.46-1.27c0-0.588-0.158-1.029-0.473-1.323c-0.315-0.294-0.757-0.441-1.324-0.441 c-0.55,0-0.983,0.157-1.298,0.473C251.296,242.85,251.138,243.289,251.138,243.852z"></path> <path d="M260.399,248.727c-1.003,0-1.785-0.309-2.345-0.927c-0.561-0.618-0.841-1.483-0.841-2.597c0-1.1,0.271-1.981,0.813-2.644 s1.271-0.993,2.19-0.993c0.813,0,1.454,0.283,1.923,0.851s0.705,1.337,0.705,2.311v0.508h-4.97 c0.008,0.948,0.229,1.672,0.664,2.171c0.434,0.499,1.055,0.749,1.863,0.749c0.394,0,0.74-0.027,1.038-0.083 c0.299-0.055,0.676-0.173,1.133-0.355v0.572c-0.389,0.169-0.749,0.284-1.079,0.346S260.797,248.727,260.399,248.727z M260.215,242.125c-0.665,0-1.198,0.219-1.6,0.657c-0.402,0.438-0.637,1.069-0.705,1.895h4.266c0-0.8-0.173-1.425-0.521-1.876 C261.309,242.351,260.829,242.125,260.215,242.125z"></path> <path d="M273.367,248.6v-4.525c0-0.674-0.131-1.164-0.394-1.473c-0.262-0.31-0.665-0.464-1.206-0.464 c-0.707,0-1.229,0.194-1.568,0.584s-0.508,1.001-0.508,1.835v4.043h-0.641v-4.717c0-1.163-0.533-1.745-1.6-1.745 c-0.724,0-1.25,0.211-1.581,0.632s-0.495,1.095-0.495,2.021v3.809h-0.628v-6.9h0.521l0.133,0.946h0.038 c0.19-0.343,0.461-0.608,0.813-0.797s0.738-0.282,1.162-0.282c1.087,0,1.786,0.408,2.095,1.225h0.025 c0.224-0.393,0.526-0.695,0.904-0.907c0.379-0.212,0.81-0.317,1.292-0.317c0.753,0,1.318,0.201,1.695,0.604 c0.376,0.401,0.565,1.041,0.565,1.916v4.514H273.367z"></path> <path d="M279.01,248.727c-1.003,0-1.785-0.309-2.345-0.927c-0.561-0.618-0.841-1.483-0.841-2.597c0-1.1,0.271-1.981,0.813-2.644 s1.271-0.993,2.19-0.993c0.813,0,1.454,0.283,1.923,0.851s0.705,1.337,0.705,2.311v0.508h-4.97 c0.008,0.948,0.229,1.672,0.664,2.171c0.434,0.499,1.055,0.749,1.863,0.749c0.394,0,0.74-0.027,1.038-0.083 c0.299-0.055,0.676-0.173,1.133-0.355v0.572c-0.389,0.169-0.749,0.284-1.079,0.346S279.408,248.727,279.01,248.727z M278.826,242.125c-0.665,0-1.198,0.219-1.6,0.657c-0.402,0.438-0.637,1.069-0.705,1.895h4.266c0-0.8-0.173-1.425-0.521-1.876 C279.92,242.351,279.44,242.125,278.826,242.125z"></path> <path d="M288.17,248.6v-4.475c0-0.694-0.146-1.199-0.438-1.515s-0.745-0.473-1.358-0.473c-0.825,0-1.429,0.208-1.812,0.625 c-0.383,0.417-0.575,1.093-0.575,2.028v3.809h-0.628v-6.9h0.533l0.121,0.946h0.038c0.449-0.72,1.246-1.079,2.393-1.079 c1.566,0,2.349,0.84,2.349,2.52v4.514H288.17z"></path> <path d="M292.848,248.168c0.398,0,0.745-0.034,1.041-0.102v0.508c-0.305,0.102-0.656,0.152-1.054,0.152 c-0.609,0-1.059-0.163-1.349-0.488c-0.29-0.326-0.435-0.838-0.435-1.537v-4.455h-1.022v-0.369l1.022-0.285l0.317-1.562h0.324 v1.669h2.025v0.547h-2.025v4.367c0,0.528,0.093,0.92,0.279,1.174S292.45,248.168,292.848,248.168z"></path> </g> <g> <path d="M153.9,319.386c0,0.897-0.305,1.585-0.914,2.063c-0.609,0.478-1.473,0.717-2.59,0.717h-1.435V326h-0.647v-9.28h2.272 C152.796,316.72,153.9,317.609,153.9,319.386z M148.962,321.608h1.276c1.045,0,1.801-0.173,2.266-0.518s0.698-0.904,0.698-1.679 c0-0.715-0.22-1.245-0.66-1.59s-1.122-0.518-2.044-0.518h-1.536V321.608z"></path> <path d="M158.477,318.967c0.292,0,0.605,0.029,0.939,0.089l-0.121,0.603c-0.288-0.071-0.586-0.107-0.895-0.107 c-0.588,0-1.071,0.25-1.447,0.749s-0.565,1.13-0.565,1.892V326h-0.628v-6.9h0.533l0.063,1.244h0.044 c0.284-0.508,0.586-0.864,0.908-1.069S158.02,318.967,158.477,318.967z"></path> <path d="M166.526,322.541c0,1.125-0.273,2.004-0.819,2.637s-1.299,0.949-2.26,0.949c-0.605,0-1.138-0.146-1.6-0.438 c-0.461-0.293-0.814-0.711-1.06-1.258c-0.246-0.545-0.368-1.176-0.368-1.891c0-1.126,0.273-2.003,0.819-2.632 c0.546-0.628,1.295-0.942,2.247-0.942c0.948,0,1.692,0.318,2.231,0.955C166.256,320.559,166.526,321.432,166.526,322.541z M161.079,322.541c0,0.947,0.208,1.687,0.625,2.218c0.417,0.531,1.006,0.797,1.768,0.797s1.351-0.266,1.768-0.797 c0.417-0.531,0.625-1.271,0.625-2.218c0-0.953-0.21-1.691-0.632-2.216c-0.421-0.524-1.012-0.787-1.774-0.787 s-1.349,0.262-1.761,0.784C161.285,320.845,161.079,321.584,161.079,322.541z"></path> <path d="M167.516,329.123c-0.338,0-0.624-0.053-0.857-0.158v-0.547c0.292,0.085,0.565,0.127,0.819,0.127 c0.639,0,0.958-0.372,0.958-1.117V319.1h0.628v8.24c0,0.57-0.134,1.011-0.403,1.32 C168.393,328.969,168.011,329.123,167.516,329.123z M168.347,317.184c0-0.406,0.133-0.609,0.4-0.609 c0.131,0,0.234,0.053,0.308,0.158c0.074,0.105,0.111,0.256,0.111,0.451c0,0.189-0.037,0.34-0.111,0.45 c-0.074,0.11-0.176,0.165-0.308,0.165C168.481,317.799,168.347,317.594,168.347,317.184z"></path> <path d="M174.162,326.127c-1.003,0-1.785-0.309-2.345-0.927c-0.561-0.618-0.841-1.483-0.841-2.597c0-1.1,0.271-1.981,0.813-2.644 s1.271-0.993,2.19-0.993c0.813,0,1.454,0.283,1.923,0.851s0.705,1.337,0.705,2.311v0.508h-4.97 c0.008,0.948,0.229,1.672,0.664,2.171c0.434,0.499,1.055,0.749,1.863,0.749c0.394,0,0.74-0.027,1.038-0.083 c0.299-0.055,0.676-0.173,1.133-0.355v0.572c-0.389,0.169-0.749,0.284-1.079,0.346S174.56,326.127,174.162,326.127z M173.978,319.526c-0.665,0-1.198,0.219-1.6,0.657c-0.402,0.438-0.637,1.069-0.705,1.895h4.266c0-0.8-0.173-1.425-0.521-1.876 C175.072,319.751,174.592,319.526,173.978,319.526z"></path> <path d="M179.126,322.973l3.523-3.873h0.762l-2.717,2.945l2.952,3.955h-0.755l-2.622-3.484l-1.13,1.027V326h-0.628v-9.877h0.628 v4.951l-0.044,1.898H179.126z"></path> <path d="M186.622,325.569c0.398,0,0.745-0.034,1.041-0.102v0.508c-0.305,0.102-0.656,0.152-1.054,0.152 c-0.609,0-1.059-0.163-1.349-0.488c-0.29-0.326-0.435-0.838-0.435-1.537v-4.455h-1.022v-0.369l1.022-0.285l0.317-1.562h0.324 v1.669h2.025v0.547h-2.025v4.367c0,0.528,0.093,0.92,0.279,1.174S186.224,325.569,186.622,325.569z"></path> <path d="M188.584,322.75v-0.521h3.015v0.521H188.584z"></path> </g> <g> <path d="M152.396,341.6l-3.459-8.569h-0.051c0.034,0.524,0.051,1.063,0.051,1.612v6.957h-0.622v-9.28h1.003l3.288,8.163h0.038 l3.288-8.163h0.978v9.28h-0.654v-7.033c0-0.491,0.025-0.999,0.076-1.523h-0.051l-3.472,8.557H152.396z"></path> <path d="M163.561,341.6l-0.159-1.092h-0.051c-0.347,0.444-0.704,0.759-1.069,0.942c-0.366,0.185-0.799,0.276-1.298,0.276 c-0.677,0-1.204-0.174-1.581-0.521s-0.565-0.827-0.565-1.44c0-0.674,0.28-1.196,0.841-1.568c0.561-0.372,1.372-0.569,2.434-0.59 l1.314-0.039v-0.457c0-0.655-0.133-1.15-0.4-1.484c-0.267-0.335-0.696-0.502-1.289-0.502c-0.639,0-1.301,0.178-1.987,0.533 l-0.235-0.546c0.757-0.355,1.506-0.533,2.247-0.533c0.757,0,1.323,0.196,1.698,0.591c0.374,0.393,0.562,1.007,0.562,1.84v4.59 H163.561z M161.022,341.156c0.736,0,1.317-0.211,1.743-0.632c0.425-0.421,0.638-1.006,0.638-1.755v-0.679l-1.206,0.051 c-0.969,0.046-1.66,0.197-2.072,0.453c-0.413,0.256-0.619,0.655-0.619,1.197c0,0.432,0.132,0.767,0.396,1.006 C160.166,341.036,160.54,341.156,161.022,341.156z"></path> <path d="M171.071,341.6v-4.475c0-0.694-0.146-1.199-0.438-1.515s-0.745-0.473-1.358-0.473c-0.825,0-1.429,0.208-1.812,0.625 c-0.383,0.417-0.575,1.093-0.575,2.028v3.809h-0.628v-6.9h0.533l0.121,0.946h0.038c0.449-0.72,1.246-1.079,2.393-1.079 c1.566,0,2.349,0.84,2.349,2.52v4.514H171.071z"></path> <path d="M178.116,341.6l-0.159-1.092h-0.051c-0.347,0.444-0.704,0.759-1.07,0.942c-0.366,0.185-0.798,0.276-1.298,0.276 c-0.677,0-1.204-0.174-1.581-0.521s-0.565-0.827-0.565-1.44c0-0.674,0.28-1.196,0.841-1.568c0.561-0.372,1.373-0.569,2.435-0.59 l1.314-0.039v-0.457c0-0.655-0.133-1.15-0.4-1.484c-0.267-0.335-0.696-0.502-1.289-0.502c-0.639,0-1.301,0.178-1.987,0.533 l-0.235-0.546c0.757-0.355,1.506-0.533,2.247-0.533c0.757,0,1.324,0.196,1.698,0.591c0.375,0.393,0.562,1.007,0.562,1.84v4.59 H178.116z M175.577,341.156c0.736,0,1.317-0.211,1.742-0.632c0.426-0.421,0.638-1.006,0.638-1.755v-0.679l-1.206,0.051 c-0.969,0.046-1.66,0.197-2.073,0.453c-0.412,0.256-0.619,0.655-0.619,1.197c0,0.432,0.132,0.767,0.397,1.006 C174.721,341.036,175.095,341.156,175.577,341.156z"></path> <path d="M186.197,334.699v0.438l-1.428,0.089c0.381,0.474,0.571,0.994,0.571,1.562c0,0.664-0.221,1.203-0.663,1.615 c-0.442,0.413-1.036,0.619-1.781,0.619c-0.313,0-0.533-0.013-0.66-0.038c-0.25,0.131-0.44,0.285-0.571,0.463 s-0.197,0.366-0.197,0.565c0,0.22,0.083,0.381,0.251,0.482c0.167,0.102,0.447,0.152,0.841,0.152h1.206 c0.749,0,1.322,0.151,1.72,0.454s0.597,0.75,0.597,1.342c0,0.729-0.295,1.29-0.885,1.686c-0.591,0.396-1.432,0.594-2.523,0.594 c-0.868,0-1.539-0.167-2.016-0.502c-0.476-0.334-0.714-0.799-0.714-1.396c0-0.474,0.147-0.867,0.441-1.18 c0.294-0.313,0.693-0.527,1.196-0.642c-0.208-0.089-0.374-0.215-0.498-0.378c-0.125-0.163-0.188-0.35-0.188-0.562 c0-0.461,0.294-0.867,0.882-1.219c-0.402-0.165-0.715-0.424-0.939-0.777s-0.336-0.759-0.336-1.216c0-0.689,0.219-1.243,0.657-1.66 c0.438-0.417,1.029-0.625,1.774-0.625c0.453,0,0.804,0.045,1.054,0.133H186.197z M180.611,342.768 c0,0.948,0.705,1.422,2.114,1.422c1.811,0,2.717-0.578,2.717-1.732c0-0.415-0.142-0.716-0.425-0.902 c-0.284-0.186-0.743-0.279-1.377-0.279h-1.13C181.244,341.276,180.611,341.774,180.611,342.768z M181.138,336.852 c0,0.533,0.162,0.947,0.485,1.241c0.324,0.294,0.757,0.44,1.298,0.44c0.576,0,1.017-0.146,1.324-0.438 c0.307-0.292,0.46-0.715,0.46-1.27c0-0.588-0.158-1.029-0.473-1.323c-0.315-0.294-0.757-0.441-1.324-0.441 c-0.55,0-0.983,0.157-1.298,0.473C181.296,335.85,181.138,336.289,181.138,336.852z"></path> <path d="M190.399,341.727c-1.003,0-1.785-0.309-2.345-0.927c-0.561-0.618-0.841-1.483-0.841-2.597c0-1.1,0.271-1.981,0.813-2.644 s1.271-0.993,2.19-0.993c0.813,0,1.454,0.283,1.923,0.851s0.705,1.337,0.705,2.311v0.508h-4.97 c0.008,0.948,0.229,1.672,0.664,2.171c0.434,0.499,1.055,0.749,1.863,0.749c0.394,0,0.74-0.027,1.038-0.083 c0.299-0.055,0.676-0.173,1.133-0.355v0.572c-0.389,0.169-0.749,0.284-1.079,0.346S190.797,341.727,190.399,341.727z M190.215,335.125c-0.665,0-1.198,0.219-1.6,0.657c-0.402,0.438-0.637,1.069-0.705,1.895h4.266c0-0.8-0.173-1.425-0.521-1.876 C191.309,335.351,190.829,335.125,190.215,335.125z"></path> <path d="M203.367,341.6v-4.525c0-0.674-0.131-1.164-0.394-1.473c-0.262-0.31-0.665-0.464-1.206-0.464 c-0.707,0-1.229,0.194-1.568,0.584s-0.508,1.001-0.508,1.835v4.043h-0.641v-4.717c0-1.163-0.533-1.745-1.6-1.745 c-0.724,0-1.25,0.211-1.581,0.632s-0.495,1.095-0.495,2.021v3.809h-0.628v-6.9h0.521l0.133,0.946h0.038 c0.19-0.343,0.461-0.608,0.813-0.797s0.738-0.282,1.162-0.282c1.087,0,1.786,0.408,2.095,1.225h0.025 c0.224-0.393,0.526-0.695,0.904-0.907c0.379-0.212,0.81-0.317,1.292-0.317c0.753,0,1.318,0.201,1.695,0.604 c0.376,0.401,0.565,1.041,0.565,1.916v4.514H203.367z"></path> <path d="M209.01,341.727c-1.003,0-1.785-0.309-2.345-0.927c-0.561-0.618-0.841-1.483-0.841-2.597c0-1.1,0.271-1.981,0.813-2.644 s1.271-0.993,2.19-0.993c0.813,0,1.454,0.283,1.923,0.851s0.705,1.337,0.705,2.311v0.508h-4.97 c0.008,0.948,0.229,1.672,0.664,2.171c0.434,0.499,1.055,0.749,1.863,0.749c0.394,0,0.74-0.027,1.038-0.083 c0.299-0.055,0.676-0.173,1.133-0.355v0.572c-0.389,0.169-0.749,0.284-1.079,0.346S209.408,341.727,209.01,341.727z M208.826,335.125c-0.665,0-1.198,0.219-1.6,0.657c-0.402,0.438-0.637,1.069-0.705,1.895h4.266c0-0.8-0.173-1.425-0.521-1.876 C209.92,335.351,209.44,335.125,208.826,335.125z"></path> <path d="M218.17,341.6v-4.475c0-0.694-0.146-1.199-0.438-1.515s-0.745-0.473-1.358-0.473c-0.825,0-1.429,0.208-1.812,0.625 c-0.383,0.417-0.575,1.093-0.575,2.028v3.809h-0.628v-6.9h0.533l0.121,0.946h0.038c0.449-0.72,1.246-1.079,2.393-1.079 c1.566,0,2.349,0.84,2.349,2.52v4.514H218.17z"></path> <path d="M222.848,341.168c0.398,0,0.745-0.034,1.041-0.102v0.508c-0.305,0.102-0.656,0.152-1.054,0.152 c-0.609,0-1.059-0.163-1.349-0.488c-0.29-0.326-0.435-0.838-0.435-1.537v-4.455h-1.022v-0.369l1.022-0.285l0.317-1.562h0.324 v1.669h2.025v0.547h-2.025v4.367c0,0.528,0.093,0.92,0.279,1.174S222.45,341.168,222.848,341.168z"></path> </g> <g> <path d="M78.962,420h-0.647v-9.28h5.084v0.597h-4.437v3.936h4.189v0.604h-4.189V420z"></path> <path d="M85.227,413.1v4.469c0,0.694,0.146,1.199,0.438,1.515s0.745,0.473,1.358,0.473c0.821,0,1.425-0.207,1.812-0.622 c0.388-0.415,0.581-1.09,0.581-2.025V413.1h0.622v6.9h-0.533l-0.114-0.952h-0.038c-0.449,0.72-1.246,1.079-2.393,1.079 c-1.57,0-2.355-0.84-2.355-2.52V413.1H85.227z"></path> <path d="M97.16,420v-4.475c0-0.694-0.146-1.199-0.438-1.515s-0.745-0.473-1.358-0.473c-0.825,0-1.429,0.208-1.812,0.625 c-0.383,0.417-0.575,1.093-0.575,2.028V420h-0.628v-6.9h0.533l0.121,0.946h0.038c0.449-0.72,1.246-1.079,2.393-1.079 c1.566,0,2.349,0.84,2.349,2.52V420H97.16z"></path> <path d="M100.633,416.973l3.523-3.873h0.762l-2.717,2.945l2.952,3.955h-0.755l-2.622-3.484l-1.13,1.027V420h-0.628v-9.877h0.628 v4.951l-0.044,1.898H100.633z"></path> <path d="M108.129,419.569c0.398,0,0.745-0.034,1.041-0.102v0.508c-0.305,0.102-0.656,0.152-1.054,0.152 c-0.609,0-1.059-0.163-1.349-0.488c-0.29-0.326-0.435-0.838-0.435-1.537v-4.455h-1.022v-0.369l1.022-0.285l0.317-1.562h0.324 v1.669h2.025v0.547h-2.025v4.367c0,0.528,0.093,0.92,0.279,1.174S107.731,419.569,108.129,419.569z"></path> <path d="M110.573,411.184c0-0.406,0.133-0.609,0.4-0.609c0.131,0,0.234,0.053,0.308,0.158c0.074,0.105,0.111,0.256,0.111,0.451 c0,0.189-0.037,0.34-0.111,0.45c-0.074,0.11-0.176,0.165-0.308,0.165C110.706,411.799,110.573,411.594,110.573,411.184z M111.29,420h-0.628v-6.9h0.628V420z"></path> <path d="M119.307,416.541c0,1.125-0.273,2.004-0.819,2.637s-1.299,0.949-2.26,0.949c-0.605,0-1.138-0.146-1.6-0.438 c-0.461-0.293-0.814-0.711-1.06-1.258c-0.246-0.545-0.368-1.176-0.368-1.891c0-1.126,0.273-2.003,0.819-2.632 c0.546-0.628,1.295-0.942,2.247-0.942c0.948,0,1.691,0.318,2.231,0.955C119.037,414.559,119.307,415.432,119.307,416.541z M113.861,416.541c0,0.947,0.208,1.687,0.625,2.218c0.417,0.531,1.006,0.797,1.768,0.797s1.351-0.266,1.768-0.797 c0.417-0.531,0.625-1.271,0.625-2.218c0-0.953-0.21-1.691-0.631-2.216c-0.421-0.524-1.013-0.787-1.774-0.787 s-1.349,0.262-1.762,0.784C114.068,414.845,113.861,415.584,113.861,416.541z"></path> <path d="M126.03,420v-4.475c0-0.694-0.146-1.199-0.438-1.515s-0.745-0.473-1.358-0.473c-0.825,0-1.429,0.208-1.812,0.625 c-0.383,0.417-0.575,1.093-0.575,2.028V420h-0.628v-6.9h0.533l0.121,0.946h0.038c0.449-0.72,1.246-1.079,2.393-1.079 c1.566,0,2.349,0.84,2.349,2.52V420H126.03z"></path> <path d="M133.075,420l-0.159-1.092h-0.051c-0.347,0.444-0.704,0.759-1.07,0.942c-0.366,0.185-0.798,0.276-1.298,0.276 c-0.677,0-1.204-0.174-1.581-0.521s-0.565-0.827-0.565-1.44c0-0.674,0.28-1.196,0.841-1.568c0.561-0.372,1.373-0.569,2.435-0.59 l1.314-0.039v-0.457c0-0.655-0.133-1.15-0.4-1.484c-0.267-0.335-0.696-0.502-1.289-0.502c-0.639,0-1.301,0.178-1.987,0.533 l-0.235-0.546c0.757-0.355,1.506-0.533,2.247-0.533c0.757,0,1.324,0.196,1.698,0.591c0.375,0.393,0.562,1.007,0.562,1.84V420 H133.075z M130.536,419.556c0.736,0,1.317-0.211,1.742-0.632c0.426-0.421,0.638-1.006,0.638-1.755v-0.679l-1.206,0.051 c-0.969,0.046-1.66,0.197-2.073,0.453c-0.412,0.256-0.619,0.655-0.619,1.197c0,0.432,0.132,0.767,0.397,1.006 C129.68,419.437,130.054,419.556,130.536,419.556z"></path> <path d="M136.402,420h-0.628v-9.877h0.628V420z"></path> <path d="M141.499,420.127c-1.003,0-1.785-0.309-2.345-0.927c-0.561-0.618-0.841-1.483-0.841-2.597c0-1.1,0.271-1.981,0.813-2.644 s1.271-0.993,2.19-0.993c0.813,0,1.454,0.283,1.923,0.851s0.705,1.337,0.705,2.311v0.508h-4.97 c0.008,0.948,0.229,1.672,0.664,2.171c0.434,0.499,1.055,0.749,1.863,0.749c0.394,0,0.74-0.027,1.038-0.083 c0.299-0.055,0.676-0.173,1.133-0.355v0.572c-0.389,0.169-0.749,0.284-1.079,0.346S141.897,420.127,141.499,420.127z M141.315,413.526c-0.665,0-1.198,0.219-1.6,0.657c-0.402,0.438-0.637,1.069-0.705,1.895h4.266c0-0.8-0.173-1.425-0.521-1.876 C142.408,413.751,141.928,413.526,141.315,413.526z"></path> <path d="M150.125,418.203c0,0.618-0.235,1.094-0.705,1.426s-1.136,0.498-2,0.498c-0.922,0-1.655-0.142-2.196-0.426v-0.679 c0.694,0.347,1.426,0.521,2.196,0.521c0.681,0,1.199-0.113,1.552-0.34c0.354-0.227,0.53-0.527,0.53-0.904 c0-0.347-0.141-0.639-0.422-0.876c-0.282-0.237-0.744-0.47-1.387-0.698c-0.69-0.25-1.174-0.465-1.454-0.645 s-0.49-0.383-0.632-0.609c-0.142-0.227-0.212-0.502-0.212-0.828c0-0.517,0.217-0.925,0.651-1.225 c0.434-0.301,1.04-0.451,1.818-0.451c0.745,0,1.452,0.14,2.12,0.419l-0.235,0.571c-0.677-0.279-1.306-0.419-1.885-0.419 c-0.563,0-1.009,0.093-1.339,0.279s-0.495,0.444-0.495,0.774c0,0.359,0.128,0.647,0.384,0.863 c0.256,0.216,0.756,0.457,1.501,0.724c0.622,0.225,1.075,0.427,1.358,0.606s0.496,0.384,0.638,0.612 C150.054,417.626,150.125,417.895,150.125,418.203z"></path> <path d="M151.331,416.75v-0.521h3.015v0.521H151.331z"></path> </g> <g> <path d="M82.396,435.6l-3.459-8.569h-0.051c0.034,0.524,0.051,1.063,0.051,1.612v6.957h-0.622v-9.28h1.003l3.288,8.163h0.038 l3.288-8.163h0.978v9.28h-0.654v-7.033c0-0.491,0.025-0.999,0.076-1.523h-0.051l-3.472,8.557H82.396z"></path> <path d="M93.561,435.6l-0.159-1.092h-0.051c-0.347,0.444-0.704,0.759-1.069,0.942c-0.366,0.185-0.799,0.276-1.298,0.276 c-0.677,0-1.204-0.174-1.581-0.521s-0.565-0.827-0.565-1.44c0-0.674,0.28-1.196,0.841-1.568c0.561-0.372,1.372-0.569,2.434-0.59 l1.314-0.039v-0.457c0-0.655-0.133-1.15-0.4-1.484c-0.267-0.335-0.696-0.502-1.289-0.502c-0.639,0-1.301,0.178-1.987,0.533 l-0.235-0.546c0.757-0.355,1.506-0.533,2.247-0.533c0.757,0,1.323,0.196,1.698,0.591c0.374,0.393,0.562,1.007,0.562,1.84v4.59 H93.561z M91.022,435.156c0.736,0,1.317-0.211,1.743-0.632c0.425-0.421,0.638-1.006,0.638-1.755v-0.679l-1.206,0.051 c-0.969,0.046-1.66,0.197-2.072,0.453c-0.413,0.256-0.619,0.655-0.619,1.197c0,0.432,0.132,0.767,0.396,1.006 C90.166,435.036,90.54,435.156,91.022,435.156z"></path> <path d="M101.071,435.6v-4.475c0-0.694-0.146-1.199-0.438-1.515s-0.745-0.473-1.358-0.473c-0.825,0-1.429,0.208-1.812,0.625 c-0.383,0.417-0.575,1.093-0.575,2.028v3.809h-0.628v-6.9h0.533l0.121,0.946h0.038c0.449-0.72,1.246-1.079,2.393-1.079 c1.566,0,2.349,0.84,2.349,2.52v4.514H101.071z"></path> <path d="M108.116,435.6l-0.159-1.092h-0.051c-0.347,0.444-0.704,0.759-1.07,0.942c-0.366,0.185-0.798,0.276-1.298,0.276 c-0.677,0-1.204-0.174-1.581-0.521s-0.565-0.827-0.565-1.44c0-0.674,0.28-1.196,0.841-1.568c0.561-0.372,1.373-0.569,2.435-0.59 l1.314-0.039v-0.457c0-0.655-0.133-1.15-0.4-1.484c-0.267-0.335-0.696-0.502-1.289-0.502c-0.639,0-1.301,0.178-1.987,0.533 l-0.235-0.546c0.757-0.355,1.506-0.533,2.247-0.533c0.757,0,1.324,0.196,1.698,0.591c0.375,0.393,0.562,1.007,0.562,1.84v4.59 H108.116z M105.577,435.156c0.736,0,1.317-0.211,1.742-0.632c0.426-0.421,0.638-1.006,0.638-1.755v-0.679l-1.206,0.051 c-0.969,0.046-1.66,0.197-2.073,0.453c-0.412,0.256-0.619,0.655-0.619,1.197c0,0.432,0.132,0.767,0.397,1.006 C104.721,435.036,105.095,435.156,105.577,435.156z"></path> <path d="M116.197,428.699v0.438l-1.428,0.089c0.381,0.474,0.571,0.994,0.571,1.562c0,0.664-0.221,1.203-0.663,1.615 c-0.442,0.413-1.036,0.619-1.781,0.619c-0.313,0-0.533-0.013-0.66-0.038c-0.25,0.131-0.44,0.285-0.571,0.463 s-0.197,0.366-0.197,0.565c0,0.22,0.083,0.381,0.251,0.482c0.167,0.102,0.447,0.152,0.841,0.152h1.206 c0.749,0,1.322,0.151,1.72,0.454s0.597,0.75,0.597,1.342c0,0.729-0.295,1.29-0.885,1.686c-0.591,0.396-1.432,0.594-2.523,0.594 c-0.868,0-1.539-0.167-2.016-0.502c-0.476-0.334-0.714-0.799-0.714-1.396c0-0.474,0.147-0.867,0.441-1.18 c0.294-0.313,0.693-0.527,1.196-0.642c-0.208-0.089-0.374-0.215-0.498-0.378c-0.125-0.163-0.188-0.35-0.188-0.562 c0-0.461,0.294-0.867,0.882-1.219c-0.402-0.165-0.715-0.424-0.939-0.777s-0.336-0.759-0.336-1.216c0-0.689,0.219-1.243,0.657-1.66 c0.438-0.417,1.029-0.625,1.774-0.625c0.453,0,0.804,0.045,1.054,0.133H116.197z M110.611,436.768 c0,0.948,0.705,1.422,2.114,1.422c1.811,0,2.717-0.578,2.717-1.732c0-0.415-0.142-0.716-0.425-0.902 c-0.284-0.186-0.743-0.279-1.377-0.279h-1.13C111.244,435.276,110.611,435.774,110.611,436.768z M111.138,430.852 c0,0.533,0.162,0.947,0.485,1.241c0.324,0.294,0.757,0.44,1.298,0.44c0.576,0,1.017-0.146,1.324-0.438 c0.307-0.292,0.46-0.715,0.46-1.27c0-0.588-0.158-1.029-0.473-1.323c-0.315-0.294-0.757-0.441-1.324-0.441 c-0.55,0-0.983,0.157-1.298,0.473C111.296,429.85,111.138,430.289,111.138,430.852z"></path> <path d="M120.399,435.727c-1.003,0-1.785-0.309-2.345-0.927c-0.561-0.618-0.841-1.483-0.841-2.597c0-1.1,0.271-1.981,0.813-2.644 s1.271-0.993,2.19-0.993c0.813,0,1.454,0.283,1.923,0.851s0.705,1.337,0.705,2.311v0.508h-4.97 c0.008,0.948,0.229,1.672,0.664,2.171c0.434,0.499,1.055,0.749,1.863,0.749c0.394,0,0.74-0.027,1.038-0.083 c0.299-0.055,0.676-0.173,1.133-0.355v0.572c-0.389,0.169-0.749,0.284-1.079,0.346S120.797,435.727,120.399,435.727z M120.215,429.125c-0.665,0-1.198,0.219-1.6,0.657c-0.402,0.438-0.637,1.069-0.705,1.895h4.266c0-0.8-0.173-1.425-0.521-1.876 C121.309,429.351,120.829,429.125,120.215,429.125z"></path> <path d="M133.367,435.6v-4.525c0-0.674-0.131-1.164-0.394-1.473c-0.262-0.31-0.665-0.464-1.206-0.464 c-0.707,0-1.229,0.194-1.568,0.584s-0.508,1.001-0.508,1.835v4.043h-0.641v-4.717c0-1.163-0.533-1.745-1.6-1.745 c-0.724,0-1.25,0.211-1.581,0.632s-0.495,1.095-0.495,2.021v3.809h-0.628v-6.9h0.521l0.133,0.946h0.038 c0.19-0.343,0.461-0.608,0.813-0.797s0.738-0.282,1.162-0.282c1.087,0,1.786,0.408,2.095,1.225h0.025 c0.224-0.393,0.526-0.695,0.904-0.907c0.379-0.212,0.81-0.317,1.292-0.317c0.753,0,1.318,0.201,1.695,0.604 c0.376,0.401,0.565,1.041,0.565,1.916v4.514H133.367z"></path> <path d="M139.01,435.727c-1.003,0-1.785-0.309-2.345-0.927c-0.561-0.618-0.841-1.483-0.841-2.597c0-1.1,0.271-1.981,0.813-2.644 s1.271-0.993,2.19-0.993c0.813,0,1.454,0.283,1.923,0.851s0.705,1.337,0.705,2.311v0.508h-4.97 c0.008,0.948,0.229,1.672,0.664,2.171c0.434,0.499,1.055,0.749,1.863,0.749c0.394,0,0.74-0.027,1.038-0.083 c0.299-0.055,0.676-0.173,1.133-0.355v0.572c-0.389,0.169-0.749,0.284-1.079,0.346S139.408,435.727,139.01,435.727z M138.826,429.125c-0.665,0-1.198,0.219-1.6,0.657c-0.402,0.438-0.637,1.069-0.705,1.895h4.266c0-0.8-0.173-1.425-0.521-1.876 C139.92,429.351,139.44,429.125,138.826,429.125z"></path> <path d="M148.17,435.6v-4.475c0-0.694-0.146-1.199-0.438-1.515s-0.745-0.473-1.358-0.473c-0.825,0-1.429,0.208-1.812,0.625 c-0.383,0.417-0.575,1.093-0.575,2.028v3.809h-0.628v-6.9h0.533l0.121,0.946h0.038c0.449-0.72,1.246-1.079,2.393-1.079 c1.566,0,2.349,0.84,2.349,2.52v4.514H148.17z"></path> <path d="M152.848,435.168c0.398,0,0.745-0.034,1.041-0.102v0.508c-0.305,0.102-0.656,0.152-1.054,0.152 c-0.609,0-1.059-0.163-1.349-0.488c-0.29-0.326-0.435-0.838-0.435-1.537v-4.455h-1.022v-0.369l1.022-0.285l0.317-1.562h0.324 v1.669h2.025v0.547h-2.025v4.367c0,0.528,0.093,0.92,0.279,1.174S152.45,435.168,152.848,435.168z"></path> </g> <g> <path d="M362.799,35.72h0.705L360.031,45h-0.571L356,35.72h0.692l2.336,6.315c0.355,0.953,0.595,1.668,0.718,2.146 c0.084-0.318,0.252-0.811,0.501-1.479L362.799,35.72z"></path> <path d="M364.57,36.184c0-0.406,0.133-0.609,0.399-0.609c0.132,0,0.233,0.053,0.308,0.158s0.111,0.256,0.111,0.451 c0,0.189-0.037,0.34-0.111,0.45s-0.176,0.165-0.308,0.165C364.703,36.799,364.57,36.594,364.57,36.184z M365.287,45h-0.629v-6.9 h0.629V45z"></path> <path d="M371.876,43.203c0,0.618-0.235,1.094-0.704,1.426c-0.471,0.332-1.137,0.498-2,0.498c-0.922,0-1.654-0.142-2.196-0.426 v-0.679c0.694,0.347,1.427,0.521,2.196,0.521c0.682,0,1.199-0.113,1.553-0.34c0.353-0.227,0.529-0.527,0.529-0.904 c0-0.347-0.141-0.639-0.422-0.876s-0.744-0.47-1.387-0.698c-0.69-0.25-1.175-0.465-1.454-0.645s-0.489-0.383-0.632-0.609 c-0.142-0.227-0.213-0.502-0.213-0.828c0-0.517,0.217-0.925,0.65-1.225c0.435-0.301,1.041-0.451,1.819-0.451 c0.745,0,1.452,0.14,2.12,0.419l-0.234,0.571c-0.678-0.279-1.307-0.419-1.886-0.419c-0.563,0-1.009,0.093-1.339,0.279 s-0.496,0.444-0.496,0.774c0,0.359,0.129,0.647,0.385,0.863s0.756,0.457,1.501,0.724c0.622,0.225,1.075,0.427,1.358,0.606 s0.496,0.384,0.639,0.612C371.804,42.626,371.876,42.895,371.876,43.203z"></path> <path d="M373.564,36.184c0-0.406,0.133-0.609,0.4-0.609c0.131,0,0.233,0.053,0.307,0.158c0.074,0.105,0.111,0.256,0.111,0.451 c0,0.189-0.037,0.34-0.111,0.45c-0.073,0.11-0.176,0.165-0.307,0.165C373.697,36.799,373.564,36.594,373.564,36.184z M374.281,45 h-0.628v-6.9h0.628V45z"></path> <path d="M382.299,41.541c0,1.125-0.273,2.004-0.818,2.637c-0.547,0.633-1.3,0.949-2.26,0.949c-0.605,0-1.139-0.146-1.6-0.438 c-0.462-0.293-0.814-0.711-1.061-1.258c-0.246-0.545-0.368-1.176-0.368-1.891c0-1.126,0.272-2.003,0.819-2.632 c0.545-0.628,1.295-0.942,2.246-0.942c0.948,0,1.691,0.318,2.232,0.955C382.029,39.559,382.299,40.432,382.299,41.541z M376.852,41.541c0,0.947,0.208,1.687,0.626,2.218c0.416,0.531,1.006,0.797,1.768,0.797s1.351-0.266,1.768-0.797 c0.416-0.531,0.625-1.271,0.625-2.218c0-0.953-0.211-1.691-0.631-2.216c-0.422-0.524-1.014-0.787-1.775-0.787 s-1.348,0.262-1.762,0.784C377.058,39.845,376.852,40.584,376.852,41.541z"></path> <path d="M389.021,45v-4.475c0-0.694-0.146-1.199-0.438-1.515s-0.745-0.473-1.358-0.473c-0.825,0-1.43,0.208-1.813,0.625 s-0.574,1.093-0.574,2.028V45h-0.629v-6.9h0.533l0.121,0.946h0.038c0.448-0.72,1.246-1.079,2.394-1.079 c1.565,0,2.348,0.84,2.348,2.52V45H389.021z"></path> <path d="M395,35.72L391.541,45h-0.66l3.453-9.28H395z"></path> <path d="M400.549,45l-3.46-8.569h-0.051c0.034,0.524,0.051,1.063,0.051,1.612V45h-0.622v-9.28h1.003l3.288,8.163h0.038 l3.288-8.163h0.978V45h-0.653v-7.033c0-0.491,0.025-0.999,0.076-1.523h-0.051L400.961,45H400.549z"></path> <path d="M407.435,36.184c0-0.406,0.133-0.609,0.4-0.609c0.131,0,0.233,0.053,0.307,0.158c0.074,0.105,0.111,0.256,0.111,0.451 c0,0.189-0.037,0.34-0.111,0.45c-0.073,0.11-0.176,0.165-0.307,0.165C407.568,36.799,407.435,36.594,407.435,36.184z M408.152,45 h-0.628v-6.9h0.628V45z"></path> <path d="M414.742,43.203c0,0.618-0.235,1.094-0.705,1.426s-1.137,0.498-2,0.498c-0.922,0-1.654-0.142-2.195-0.426v-0.679 c0.693,0.347,1.426,0.521,2.195,0.521c0.682,0,1.199-0.113,1.553-0.34s0.529-0.527,0.529-0.904c0-0.347-0.141-0.639-0.422-0.876 s-0.744-0.47-1.387-0.698c-0.689-0.25-1.174-0.465-1.453-0.645s-0.49-0.383-0.633-0.609c-0.141-0.227-0.212-0.502-0.212-0.828 c0-0.517,0.217-0.925,0.651-1.225c0.434-0.301,1.039-0.451,1.818-0.451c0.744,0,1.451,0.14,2.119,0.419l-0.234,0.571 c-0.678-0.279-1.306-0.419-1.885-0.419c-0.563,0-1.01,0.093-1.34,0.279s-0.495,0.444-0.495,0.774c0,0.359,0.128,0.647,0.384,0.863 s0.757,0.457,1.502,0.724c0.621,0.225,1.074,0.427,1.357,0.606c0.284,0.18,0.496,0.384,0.639,0.612 C414.671,42.626,414.742,42.895,414.742,43.203z"></path> <path d="M420.797,43.203c0,0.618-0.234,1.094-0.704,1.426s-1.136,0.498-1.999,0.498c-0.923,0-1.655-0.142-2.197-0.426v-0.679 c0.694,0.347,1.427,0.521,2.197,0.521c0.681,0,1.198-0.113,1.551-0.34c0.354-0.227,0.531-0.527,0.531-0.904 c0-0.347-0.141-0.639-0.422-0.876c-0.282-0.237-0.744-0.47-1.388-0.698c-0.69-0.25-1.175-0.465-1.454-0.645 s-0.489-0.383-0.631-0.609c-0.143-0.227-0.213-0.502-0.213-0.828c0-0.517,0.217-0.925,0.65-1.225 c0.434-0.301,1.04-0.451,1.818-0.451c0.745,0,1.452,0.14,2.121,0.419l-0.235,0.571c-0.677-0.279-1.306-0.419-1.886-0.419 c-0.563,0-1.009,0.093-1.339,0.279s-0.495,0.444-0.495,0.774c0,0.359,0.128,0.647,0.385,0.863c0.256,0.216,0.756,0.457,1.5,0.724 c0.623,0.225,1.075,0.427,1.359,0.606c0.283,0.18,0.496,0.384,0.637,0.612C420.726,42.626,420.797,42.895,420.797,43.203z"></path> <path d="M422.486,36.184c0-0.406,0.133-0.609,0.399-0.609c0.132,0,0.233,0.053,0.308,0.158s0.111,0.256,0.111,0.451 c0,0.189-0.037,0.34-0.111,0.45s-0.176,0.165-0.308,0.165C422.619,36.799,422.486,36.594,422.486,36.184z M423.203,45h-0.629v-6.9 h0.629V45z"></path> <path d="M431.22,41.541c0,1.125-0.273,2.004-0.819,2.637s-1.3,0.949-2.26,0.949c-0.604,0-1.138-0.146-1.6-0.438 c-0.462-0.293-0.814-0.711-1.06-1.258c-0.246-0.545-0.369-1.176-0.369-1.891c0-1.126,0.273-2.003,0.819-2.632 c0.546-0.628,1.295-0.942,2.247-0.942c0.947,0,1.691,0.318,2.23,0.955C430.951,39.559,431.22,40.432,431.22,41.541z M425.773,41.541c0,0.947,0.209,1.687,0.625,2.218c0.418,0.531,1.007,0.797,1.769,0.797s1.351-0.266,1.769-0.797 c0.416-0.531,0.625-1.271,0.625-2.218c0-0.953-0.211-1.691-0.633-2.216c-0.42-0.524-1.012-0.787-1.773-0.787 s-1.35,0.262-1.762,0.784S425.773,40.584,425.773,41.541z"></path> <path d="M437.942,45v-4.475c0-0.694-0.146-1.199-0.438-1.515c-0.291-0.315-0.744-0.473-1.357-0.473 c-0.826,0-1.43,0.208-1.813,0.625s-0.574,1.093-0.574,2.028V45h-0.629v-6.9h0.533l0.121,0.946h0.037 c0.449-0.72,1.246-1.079,2.394-1.079c1.565,0,2.349,0.84,2.349,2.52V45H437.942z"></path> <path d="M441.515,43.49l0.076,0.134c-0.316,1.121-0.686,2.139-1.104,3.053h-0.413c0.325-1.164,0.559-2.226,0.698-3.187H441.515z"></path> <path d="M452.25,42.608c0,0.773-0.285,1.388-0.854,1.84c-0.569,0.453-1.326,0.68-2.27,0.68c-1.135,0-2.004-0.125-2.609-0.375 v-0.646c0.669,0.283,1.521,0.425,2.559,0.425c0.762,0,1.365-0.175,1.813-0.523c0.446-0.35,0.67-0.808,0.67-1.374 c0-0.352-0.074-0.643-0.223-0.873s-0.389-0.441-0.724-0.632s-0.825-0.396-1.473-0.616c-0.948-0.325-1.603-0.678-1.964-1.057 c-0.363-0.379-0.543-0.883-0.543-1.514c0-0.694,0.271-1.26,0.814-1.698c0.545-0.438,1.244-0.657,2.099-0.657 c0.872,0,1.69,0.166,2.456,0.496l-0.234,0.559c-0.77-0.322-1.506-0.482-2.209-0.482c-0.686,0-1.231,0.158-1.638,0.476 s-0.609,0.749-0.609,1.295c0,0.343,0.063,0.624,0.187,0.845c0.125,0.22,0.33,0.417,0.613,0.593s0.77,0.387,1.46,0.632 c0.724,0.25,1.268,0.492,1.632,0.727c0.363,0.235,0.629,0.502,0.797,0.8C452.166,41.823,452.25,42.184,452.25,42.608z"></path> <path d="M455.875,44.569c0.397,0,0.744-0.034,1.041-0.102v0.508c-0.305,0.102-0.656,0.152-1.055,0.152 c-0.609,0-1.059-0.163-1.348-0.488c-0.291-0.326-0.436-0.838-0.436-1.537v-4.455h-1.021v-0.369l1.021-0.285l0.317-1.562h0.323 V38.1h2.025v0.547h-2.025v4.367c0,0.528,0.094,0.92,0.279,1.174C455.184,44.442,455.476,44.569,455.875,44.569z"></path> <path d="M461.124,37.967c0.292,0,0.604,0.029,0.939,0.089l-0.12,0.603c-0.288-0.071-0.586-0.107-0.896-0.107 c-0.589,0-1.071,0.25-1.447,0.749s-0.565,1.13-0.565,1.892V45h-0.628v-6.9h0.533l0.063,1.244h0.045 c0.283-0.508,0.586-0.864,0.907-1.069S460.667,37.967,461.124,37.967z"></path> <path d="M467.656,45l-0.159-1.092h-0.051c-0.347,0.444-0.704,0.759-1.069,0.942c-0.366,0.185-0.799,0.276-1.299,0.276 c-0.677,0-1.203-0.174-1.58-0.521s-0.564-0.827-0.564-1.44c0-0.674,0.279-1.196,0.84-1.568c0.562-0.372,1.373-0.569,2.436-0.59 l1.313-0.039v-0.457c0-0.655-0.134-1.15-0.399-1.484c-0.268-0.335-0.697-0.502-1.289-0.502c-0.639,0-1.301,0.178-1.986,0.533 l-0.235-0.546c0.757-0.355,1.507-0.533,2.247-0.533c0.758,0,1.324,0.196,1.697,0.591c0.375,0.393,0.563,1.007,0.563,1.84V45 H467.656z M465.117,44.556c0.736,0,1.316-0.211,1.742-0.632s0.638-1.006,0.638-1.755V41.49l-1.206,0.051 c-0.969,0.046-1.66,0.197-2.072,0.453s-0.619,0.655-0.619,1.197c0,0.432,0.133,0.767,0.396,1.006 C464.26,44.437,464.635,44.556,465.117,44.556z"></path> <path d="M472.176,44.569c0.397,0,0.744-0.034,1.041-0.102v0.508c-0.305,0.102-0.656,0.152-1.055,0.152 c-0.609,0-1.059-0.163-1.348-0.488c-0.291-0.326-0.436-0.838-0.436-1.537v-4.455h-1.021v-0.369l1.021-0.285l0.317-1.562h0.323 V38.1h2.025v0.547h-2.025v4.367c0,0.528,0.094,0.92,0.279,1.174C471.485,44.442,471.777,44.569,472.176,44.569z"></path> <path d="M477.494,45.127c-1.002,0-1.784-0.309-2.346-0.927c-0.561-0.618-0.84-1.483-0.84-2.597c0-1.1,0.271-1.981,0.813-2.644 c0.541-0.662,1.271-0.993,2.189-0.993c0.813,0,1.453,0.283,1.924,0.851c0.469,0.567,0.704,1.337,0.704,2.311v0.508h-4.97 c0.008,0.948,0.229,1.672,0.662,2.171c0.435,0.499,1.056,0.749,1.863,0.749c0.395,0,0.74-0.027,1.039-0.083 c0.297-0.055,0.676-0.173,1.133-0.355v0.572c-0.39,0.169-0.75,0.284-1.08,0.346S477.892,45.127,477.494,45.127z M477.31,38.526 c-0.664,0-1.197,0.219-1.6,0.657c-0.402,0.438-0.637,1.069-0.705,1.895h4.266c0-0.8-0.173-1.425-0.52-1.876 C478.404,38.751,477.924,38.526,477.31,38.526z"></path> <path d="M487.225,38.1v0.438l-1.429,0.089c0.381,0.474,0.572,0.994,0.572,1.562c0,0.664-0.222,1.203-0.664,1.615 c-0.441,0.413-1.035,0.619-1.78,0.619c-0.313,0-0.533-0.013-0.66-0.038c-0.249,0.131-0.44,0.285-0.571,0.463 s-0.197,0.366-0.197,0.565c0,0.22,0.084,0.381,0.252,0.482c0.166,0.102,0.447,0.152,0.84,0.152h1.207 c0.748,0,1.322,0.151,1.72,0.454s0.597,0.75,0.597,1.342c0,0.729-0.295,1.29-0.885,1.686c-0.592,0.396-1.432,0.594-2.523,0.594 c-0.868,0-1.539-0.167-2.016-0.502c-0.477-0.334-0.715-0.799-0.715-1.396c0-0.474,0.147-0.867,0.441-1.18 c0.295-0.313,0.693-0.527,1.197-0.642c-0.208-0.089-0.374-0.215-0.498-0.378c-0.125-0.163-0.188-0.35-0.188-0.562 c0-0.461,0.293-0.867,0.882-1.219c-0.401-0.165-0.716-0.424-0.939-0.777s-0.337-0.759-0.337-1.216c0-0.689,0.219-1.243,0.658-1.66 c0.438-0.417,1.029-0.625,1.773-0.625c0.453,0,0.805,0.045,1.054,0.133H487.225z M481.639,46.168c0,0.948,0.704,1.422,2.114,1.422 c1.811,0,2.717-0.578,2.717-1.732c0-0.415-0.143-0.716-0.426-0.902c-0.283-0.186-0.742-0.279-1.377-0.279h-1.131 C482.272,44.676,481.639,45.174,481.639,46.168z M482.166,40.252c0,0.533,0.162,0.947,0.486,1.241s0.756,0.44,1.298,0.44 c0.575,0,1.017-0.146,1.323-0.438s0.461-0.715,0.461-1.27c0-0.588-0.158-1.029-0.473-1.323c-0.316-0.294-0.758-0.441-1.324-0.441 c-0.551,0-0.982,0.157-1.299,0.473C482.324,39.25,482.166,39.69,482.166,40.252z"></path> <path d="M488.552,36.184c0-0.406,0.133-0.609,0.399-0.609c0.132,0,0.233,0.053,0.308,0.158s0.111,0.256,0.111,0.451 c0,0.189-0.037,0.34-0.111,0.45s-0.176,0.165-0.308,0.165C488.685,36.799,488.552,36.594,488.552,36.184z M489.269,45h-0.629v-6.9 h0.629V45z"></path> <path d="M494.367,45.127c-1.004,0-1.785-0.309-2.346-0.927s-0.842-1.483-0.842-2.597c0-1.1,0.271-1.981,0.813-2.644 c0.542-0.662,1.271-0.993,2.19-0.993c0.813,0,1.454,0.283,1.923,0.851c0.471,0.567,0.705,1.337,0.705,2.311v0.508h-4.971 c0.009,0.948,0.23,1.672,0.664,2.171s1.055,0.749,1.863,0.749c0.393,0,0.738-0.027,1.037-0.083 c0.299-0.055,0.676-0.173,1.133-0.355v0.572c-0.389,0.169-0.748,0.284-1.078,0.346S494.764,45.127,494.367,45.127z M494.182,38.526c-0.665,0-1.198,0.219-1.6,0.657c-0.401,0.438-0.637,1.069-0.704,1.895h4.266c0-0.8-0.174-1.425-0.521-1.876 C495.276,38.751,494.797,38.526,494.182,38.526z"></path> </g> <g> <path d="M42.794,42.714l-3.105-8.943H39.63c0.083,1.329,0.125,2.574,0.125,3.736v5.207h-1.589V32.006h2.468l2.974,8.519h0.044 l3.062-8.519h2.476v10.708h-1.685v-5.295c0-0.532,0.013-1.226,0.04-2.08s0.05-1.372,0.07-1.553h-0.059l-3.215,8.928H42.794z"></path> <path d="M57.538,42.714l-0.242-1.063h-0.088c-0.239,0.377-0.58,0.672-1.022,0.887s-0.946,0.322-1.512,0.322 c-0.981,0-1.714-0.244-2.197-0.732s-0.725-1.228-0.725-2.219v-5.296h1.736v4.995c0,0.62,0.127,1.085,0.381,1.396 c0.254,0.31,0.652,0.465,1.194,0.465c0.723,0,1.253-0.216,1.593-0.648c0.339-0.432,0.509-1.155,0.509-2.171v-4.036h1.729v8.101 H57.538z"></path> <path d="M63.068,42.714h-1.721V31.318h1.721V42.714z"></path> <path d="M68.546,41.469c0.42,0,0.84-0.065,1.26-0.198v1.297c-0.19,0.083-0.436,0.152-0.736,0.209 c-0.301,0.056-0.612,0.084-0.934,0.084c-1.631,0-2.446-0.859-2.446-2.578v-4.365h-1.106v-0.762l1.187-0.63l0.586-1.714h1.062 v1.802h2.307v1.304h-2.307v4.336c0,0.415,0.104,0.722,0.311,0.919C67.937,41.37,68.209,41.469,68.546,41.469z"></path> <path d="M71.322,32.468c0-0.309,0.084-0.545,0.253-0.711c0.168-0.166,0.409-0.249,0.721-0.249c0.303,0,0.539,0.083,0.707,0.249 c0.169,0.166,0.253,0.402,0.253,0.711c0,0.293-0.084,0.523-0.253,0.691c-0.168,0.169-0.404,0.253-0.707,0.253 c-0.313,0-0.553-0.084-0.721-0.253C71.406,32.991,71.322,32.761,71.322,32.468z M73.146,42.714h-1.721v-8.101h1.721V42.714z"></path> <path d="M79.716,42.861c-1.025,0-1.821-0.368-2.388-1.105h-0.103c0.068,0.684,0.103,1.098,0.103,1.244v3.318h-1.721V34.614h1.392 c0.039,0.151,0.12,0.513,0.242,1.084h0.088c0.537-0.82,1.343-1.23,2.417-1.23c1.011,0,1.798,0.366,2.362,1.099 c0.563,0.732,0.846,1.761,0.846,3.084s-0.287,2.355-0.86,3.098C81.518,42.49,80.726,42.861,79.716,42.861z M79.298,35.873 c-0.684,0-1.183,0.2-1.498,0.601c-0.315,0.4-0.473,1.04-0.473,1.919v0.257c0,0.986,0.156,1.7,0.469,2.142 c0.313,0.442,0.823,0.663,1.531,0.663c0.596,0,1.055-0.244,1.377-0.732s0.483-1.184,0.483-2.088c0-0.908-0.16-1.595-0.48-2.062 C80.388,36.107,79.918,35.873,79.298,35.873z"></path> <path d="M89.061,34.467c0.347,0,0.632,0.024,0.857,0.073l-0.168,1.604c-0.244-0.059-0.498-0.088-0.762-0.088 c-0.688,0-1.247,0.226-1.674,0.674c-0.427,0.45-0.641,1.033-0.641,1.751v4.233h-1.721v-8.101H86.3l0.227,1.429h0.088 c0.269-0.484,0.619-0.867,1.051-1.15C88.098,34.609,88.563,34.467,89.061,34.467z"></path> <path d="M98.605,38.65c0,1.323-0.339,2.355-1.018,3.098s-1.624,1.113-2.834,1.113c-0.757,0-1.426-0.171-2.007-0.513 s-1.028-0.832-1.34-1.472s-0.469-1.382-0.469-2.227c0-1.313,0.337-2.339,1.011-3.076s1.624-1.106,2.849-1.106 c1.172,0,2.1,0.377,2.783,1.132C98.263,36.353,98.605,37.37,98.605,38.65z M92.709,38.65c0,1.87,0.691,2.805,2.073,2.805 c1.367,0,2.051-0.935,2.051-2.805c0-1.851-0.688-2.776-2.065-2.776c-0.723,0-1.247,0.239-1.571,0.718 C92.871,37.07,92.709,37.755,92.709,38.65z"></path> <path d="M99.755,46.318c-0.518,0-0.947-0.062-1.289-0.184v-1.361c0.332,0.088,0.671,0.131,1.018,0.131 c0.732,0,1.099-0.415,1.099-1.244v-9.046h1.721v9.163c0,0.834-0.219,1.467-0.655,1.896 C101.211,46.103,100.58,46.318,99.755,46.318z M100.48,32.468c0-0.309,0.084-0.545,0.252-0.711 c0.169-0.166,0.409-0.249,0.722-0.249c0.303,0,0.538,0.083,0.707,0.249c0.168,0.166,0.252,0.402,0.252,0.711 c0,0.293-0.084,0.523-0.252,0.691c-0.169,0.169-0.404,0.253-0.707,0.253c-0.313,0-0.553-0.084-0.722-0.253 C100.564,32.991,100.48,32.761,100.48,32.468z"></path> <path d="M108.302,42.861c-1.26,0-2.245-0.367-2.956-1.103c-0.71-0.734-1.065-1.747-1.065-3.036c0-1.322,0.33-2.362,0.989-3.119 s1.565-1.136,2.717-1.136c1.069,0,1.914,0.325,2.534,0.974c0.62,0.65,0.93,1.544,0.93,2.682v0.93h-5.398 c0.024,0.786,0.237,1.391,0.637,1.813c0.4,0.423,0.964,0.634,1.692,0.634c0.479,0,0.924-0.045,1.337-0.136 c0.412-0.09,0.855-0.24,1.329-0.45v1.399c-0.42,0.2-0.845,0.342-1.274,0.424C109.344,42.819,108.854,42.861,108.302,42.861z M107.987,35.771c-0.547,0-0.985,0.174-1.314,0.52c-0.33,0.348-0.526,0.853-0.59,1.517h3.677c-0.01-0.669-0.171-1.176-0.483-1.52 C108.964,35.943,108.534,35.771,107.987,35.771z"></path> <path d="M115.07,38.437l0.974-1.216l2.446-2.607h1.985l-3.259,3.479l3.464,4.621h-2.021l-2.6-3.553l-0.945,0.777v2.775h-1.707 V31.318h1.707v5.559l-0.088,1.561H115.07z"></path> <path d="M125.001,41.469c0.42,0,0.84-0.065,1.26-0.198v1.297c-0.19,0.083-0.436,0.152-0.736,0.209 c-0.301,0.056-0.612,0.084-0.934,0.084c-1.631,0-2.446-0.859-2.446-2.578v-4.365h-1.106v-0.762l1.187-0.63l0.586-1.714h1.062 v1.802h2.307v1.304h-2.307v4.336c0,0.415,0.104,0.722,0.311,0.919C124.392,41.37,124.664,41.469,125.001,41.469z"></path> <path d="M127.177,39.425V37.96h3.765v1.465H127.177z"></path> </g> <g> <path d="M42.794,60.714l-3.105-8.943H39.63c0.083,1.329,0.125,2.574,0.125,3.736v5.207h-1.589V50.006h2.468l2.974,8.519h0.044 l3.062-8.519h2.476v10.708h-1.685v-5.295c0-0.532,0.013-1.226,0.04-2.08s0.05-1.372,0.07-1.553h-0.059l-3.215,8.928H42.794z"></path> <path d="M56.893,60.714l-0.344-1.128H56.49c-0.391,0.493-0.784,0.829-1.179,1.007c-0.396,0.179-0.903,0.268-1.523,0.268 c-0.796,0-1.417-0.215-1.864-0.645c-0.446-0.43-0.67-1.037-0.67-1.824c0-0.834,0.31-1.465,0.93-1.889 c0.62-0.426,1.565-0.657,2.834-0.696l1.399-0.044v-0.432c0-0.518-0.121-0.905-0.363-1.161c-0.241-0.257-0.616-0.385-1.124-0.385 c-0.415,0-0.813,0.062-1.194,0.183c-0.381,0.123-0.747,0.267-1.099,0.433l-0.557-1.23c0.439-0.229,0.92-0.404,1.443-0.523 c0.522-0.12,1.016-0.18,1.479-0.18c1.03,0,1.808,0.225,2.333,0.674c0.524,0.449,0.787,1.155,0.787,2.116v5.457H56.893z M54.33,59.542c0.625,0,1.126-0.175,1.505-0.523c0.378-0.35,0.568-0.839,0.568-1.469v-0.703l-1.04,0.044 c-0.811,0.029-1.4,0.165-1.769,0.406c-0.369,0.242-0.553,0.612-0.553,1.11c0,0.361,0.107,0.641,0.322,0.838 C53.578,59.444,53.9,59.542,54.33,59.542z"></path> <path d="M67.653,60.714h-1.729v-4.98c0-0.625-0.126-1.092-0.377-1.398c-0.251-0.309-0.65-0.462-1.197-0.462 c-0.728,0-1.26,0.215-1.597,0.645s-0.505,1.149-0.505,2.161v4.035h-1.721v-8.101h1.348l0.242,1.062h0.088 c0.244-0.385,0.591-0.683,1.04-0.893s0.947-0.315,1.494-0.315c1.943,0,2.915,0.989,2.915,2.966V60.714z"></path> <path d="M75.116,60.714l-0.344-1.128h-0.059c-0.391,0.493-0.784,0.829-1.179,1.007c-0.396,0.179-0.903,0.268-1.523,0.268 c-0.796,0-1.417-0.215-1.864-0.645c-0.446-0.43-0.67-1.037-0.67-1.824c0-0.834,0.31-1.465,0.93-1.889 c0.62-0.426,1.565-0.657,2.834-0.696l1.399-0.044v-0.432c0-0.518-0.121-0.905-0.363-1.161c-0.241-0.257-0.616-0.385-1.124-0.385 c-0.415,0-0.813,0.062-1.194,0.183c-0.381,0.123-0.747,0.267-1.099,0.433l-0.557-1.23c0.439-0.229,0.92-0.404,1.443-0.523 c0.522-0.12,1.016-0.18,1.479-0.18c1.03,0,1.808,0.225,2.333,0.674c0.524,0.449,0.787,1.155,0.787,2.116v5.457H75.116z M72.552,59.542c0.625,0,1.126-0.175,1.505-0.523c0.378-0.35,0.568-0.839,0.568-1.469v-0.703l-1.04,0.044 c-0.811,0.029-1.4,0.165-1.769,0.406c-0.369,0.242-0.553,0.612-0.553,1.11c0,0.361,0.107,0.641,0.322,0.838 C71.801,59.444,72.123,59.542,72.552,59.542z"></path> <path d="M85.59,52.614v0.944l-1.384,0.257c0.127,0.171,0.232,0.381,0.315,0.63s0.125,0.513,0.125,0.791 c0,0.835-0.288,1.492-0.864,1.971s-1.37,0.717-2.38,0.717c-0.259,0-0.493-0.019-0.703-0.059c-0.371,0.23-0.557,0.498-0.557,0.807 c0,0.186,0.086,0.324,0.26,0.417s0.492,0.14,0.956,0.14h1.414c0.894,0,1.572,0.189,2.036,0.57s0.696,0.931,0.696,1.648 c0,0.918-0.378,1.626-1.135,2.124s-1.851,0.747-3.281,0.747c-1.104,0-1.946-0.195-2.527-0.586s-0.872-0.947-0.872-1.67 c0-0.498,0.158-0.917,0.472-1.256c0.315-0.34,0.756-0.575,1.322-0.707c-0.229-0.098-0.419-0.255-0.567-0.473 c-0.149-0.217-0.224-0.445-0.224-0.685c0-0.303,0.085-0.559,0.256-0.769s0.425-0.418,0.762-0.623 c-0.42-0.181-0.761-0.475-1.022-0.883c-0.261-0.407-0.392-0.885-0.392-1.432c0-0.879,0.277-1.561,0.831-2.043 c0.554-0.484,1.344-0.726,2.37-0.726c0.229,0,0.47,0.016,0.721,0.048c0.251,0.031,0.441,0.064,0.568,0.099H85.59z M79.225,61.974 c0,0.371,0.167,0.656,0.501,0.857c0.334,0.199,0.805,0.3,1.41,0.3c0.938,0,1.636-0.135,2.095-0.403s0.688-0.625,0.688-1.068 c0-0.352-0.126-0.603-0.377-0.751c-0.252-0.149-0.719-0.224-1.403-0.224h-1.304c-0.493,0-0.885,0.116-1.175,0.348 C79.37,61.265,79.225,61.578,79.225,61.974z M79.965,55.236c0,0.508,0.13,0.898,0.392,1.172s0.636,0.41,1.125,0.41 c0.996,0,1.494-0.532,1.494-1.597c0-0.527-0.124-0.934-0.37-1.22c-0.247-0.285-0.622-0.428-1.125-0.428 c-0.498,0-0.875,0.142-1.131,0.424C80.093,54.281,79.965,54.694,79.965,55.236z"></path> <path d="M90.629,60.861c-1.26,0-2.245-0.367-2.955-1.103c-0.711-0.734-1.066-1.747-1.066-3.036c0-1.322,0.33-2.362,0.989-3.119 s1.565-1.136,2.717-1.136c1.069,0,1.914,0.325,2.534,0.974c0.62,0.65,0.93,1.544,0.93,2.682v0.93H88.38 c0.024,0.786,0.237,1.391,0.637,1.813c0.4,0.423,0.964,0.634,1.692,0.634c0.479,0,0.924-0.045,1.336-0.136 c0.413-0.09,0.856-0.24,1.33-0.45v1.399c-0.42,0.2-0.845,0.342-1.274,0.424C91.671,60.819,91.18,60.861,90.629,60.861z M90.314,53.771c-0.547,0-0.985,0.174-1.315,0.52c-0.329,0.348-0.526,0.853-0.589,1.517h3.677c-0.01-0.669-0.171-1.176-0.483-1.52 C91.29,53.943,90.861,53.771,90.314,53.771z"></path> <path d="M102.56,60.714h-1.729v-4.995c0-0.62-0.117-1.083-0.352-1.388c-0.234-0.306-0.601-0.458-1.099-0.458 c-0.664,0-1.151,0.216-1.461,0.648c-0.31,0.432-0.465,1.151-0.465,2.157v4.035h-1.721v-8.101h1.348l0.242,1.062h0.088 c0.225-0.385,0.55-0.683,0.978-0.893s0.897-0.315,1.41-0.315c1.245,0,2.07,0.425,2.476,1.274h0.117 c0.239-0.4,0.576-0.713,1.011-0.938s0.933-0.337,1.494-0.337c0.967,0,1.671,0.244,2.113,0.732 c0.441,0.488,0.663,1.233,0.663,2.233v5.281h-1.721v-4.995c0-0.62-0.119-1.083-0.355-1.388c-0.237-0.306-0.604-0.458-1.102-0.458 c-0.669,0-1.159,0.209-1.468,0.626c-0.311,0.418-0.465,1.059-0.465,1.923V60.714z"></path> <path d="M113.612,60.861c-1.26,0-2.245-0.367-2.955-1.103c-0.711-0.734-1.066-1.747-1.066-3.036c0-1.322,0.33-2.362,0.989-3.119 s1.565-1.136,2.717-1.136c1.069,0,1.914,0.325,2.534,0.974c0.62,0.65,0.93,1.544,0.93,2.682v0.93h-5.398 c0.024,0.786,0.237,1.391,0.637,1.813c0.4,0.423,0.964,0.634,1.692,0.634c0.479,0,0.924-0.045,1.336-0.136 c0.413-0.09,0.856-0.24,1.33-0.45v1.399c-0.42,0.2-0.845,0.342-1.274,0.424C114.655,60.819,114.164,60.861,113.612,60.861z M113.297,53.771c-0.547,0-0.985,0.174-1.315,0.52c-0.329,0.348-0.526,0.853-0.589,1.517h3.677 c-0.01-0.669-0.171-1.176-0.483-1.52C114.274,53.943,113.844,53.771,113.297,53.771z"></path> <path d="M125.844,60.714h-1.729v-4.98c0-0.625-0.126-1.092-0.377-1.398c-0.252-0.309-0.651-0.462-1.198-0.462 c-0.728,0-1.26,0.215-1.597,0.645s-0.505,1.149-0.505,2.161v4.035h-1.721v-8.101h1.348l0.242,1.062h0.088 c0.244-0.385,0.591-0.683,1.04-0.893s0.947-0.315,1.494-0.315c1.943,0,2.915,0.989,2.915,2.966V60.714z"></path> <path d="M131.256,59.469c0.42,0,0.84-0.065,1.26-0.198v1.297c-0.19,0.083-0.436,0.152-0.736,0.209 c-0.301,0.056-0.612,0.084-0.934,0.084c-1.631,0-2.446-0.859-2.446-2.578v-4.365h-1.106v-0.762l1.187-0.63l0.586-1.714h1.062 v1.802h2.307v1.304h-2.307v4.336c0,0.415,0.104,0.722,0.311,0.919C130.647,59.37,130.919,59.469,131.256,59.469z"></path> </g> <polyline fill="none" points="358,231 358,184 485.169,184 "></polyline> </g> </svg> 